{
	"patcher" : 	{
		"fileversion" : 1,
		"rect" : [ 47.0, 101.0, 1160.0, 541.0 ],
		"bglocked" : 0,
		"defrect" : [ 47.0, 101.0, 1160.0, 541.0 ],
		"openrect" : [ 0.0, 0.0, 0.0, 0.0 ],
		"openinpresentation" : 0,
		"default_fontsize" : 12.0,
		"default_fontface" : 0,
		"default_fontname" : "Arial",
		"gridonopen" : 0,
		"gridsize" : [ 15.0, 15.0 ],
		"gridsnaponopen" : 0,
		"toolbarvisible" : 1,
		"boxanimatetime" : 200,
		"imprint" : 0,
		"enablehscroll" : 1,
		"enablevscroll" : 1,
		"devicewidth" : 0.0,
		"boxes" : [ 			{
				"box" : 				{
					"maxclass" : "newobj",
					"text" : "jit.window",
					"id" : "obj-61",
					"numinlets" : 1,
					"patching_rect" : [ 180.0, 435.0, 63.0, 20.0 ],
					"fontname" : "Arial",
					"numoutlets" : 2,
					"outlettype" : [ "bang", "" ],
					"fontsize" : 12.0
				}

			}
, 			{
				"box" : 				{
					"maxclass" : "message",
					"text" : "0",
					"id" : "obj-47",
					"numinlets" : 2,
					"patching_rect" : [ 450.0, 225.0, 32.5, 18.0 ],
					"fontname" : "Arial",
					"numoutlets" : 1,
					"outlettype" : [ "" ],
					"fontsize" : 12.0
				}

			}
, 			{
				"box" : 				{
					"maxclass" : "message",
					"text" : "255",
					"id" : "obj-45",
					"numinlets" : 2,
					"patching_rect" : [ 420.0, 225.0, 32.5, 18.0 ],
					"fontname" : "Arial",
					"numoutlets" : 1,
					"outlettype" : [ "" ],
					"fontsize" : 12.0
				}

			}
, 			{
				"box" : 				{
					"maxclass" : "message",
					"text" : "read patt.sample1",
					"id" : "obj-39",
					"numinlets" : 2,
					"patching_rect" : [ 360.0, 30.0, 107.0, 18.0 ],
					"fontname" : "Arial",
					"numoutlets" : 1,
					"outlettype" : [ "" ],
					"fontsize" : 12.0
				}

			}
, 			{
				"box" : 				{
					"maxclass" : "button",
					"id" : "obj-41",
					"numinlets" : 1,
					"patching_rect" : [ 450.0, 0.0, 20.0, 20.0 ],
					"numoutlets" : 1,
					"outlettype" : [ "bang" ]
				}

			}
, 			{
				"box" : 				{
					"maxclass" : "newobj",
					"text" : "del 3000",
					"id" : "obj-36",
					"numinlets" : 2,
					"patching_rect" : [ 450.0, 30.0, 57.0, 20.0 ],
					"fontname" : "Arial",
					"numoutlets" : 1,
					"outlettype" : [ "bang" ],
					"fontsize" : 12.0
				}

			}
, 			{
				"box" : 				{
					"maxclass" : "message",
					"text" : "settings",
					"id" : "obj-37",
					"numinlets" : 2,
					"patching_rect" : [ 405.0, 195.0, 52.0, 18.0 ],
					"fontname" : "Arial",
					"numoutlets" : 1,
					"outlettype" : [ "" ],
					"fontsize" : 12.0
				}

			}
, 			{
				"box" : 				{
					"maxclass" : "message",
					"text" : "dim 320 240",
					"id" : "obj-34",
					"numinlets" : 2,
					"patching_rect" : [ 420.0, 105.0, 77.0, 18.0 ],
					"fontname" : "Arial",
					"numoutlets" : 1,
					"outlettype" : [ "" ],
					"fontsize" : 12.0
				}

			}
, 			{
				"box" : 				{
					"maxclass" : "newobj",
					"text" : "p adapt",
					"id" : "obj-17",
					"numinlets" : 1,
					"patching_rect" : [ 690.0, 435.0, 51.0, 20.0 ],
					"fontname" : "Arial",
					"numoutlets" : 1,
					"outlettype" : [ "" ],
					"fontsize" : 12.0,
					"patcher" : 					{
						"fileversion" : 1,
						"rect" : [ 25.0, 69.0, 353.0, 358.0 ],
						"bglocked" : 0,
						"defrect" : [ 25.0, 69.0, 353.0, 358.0 ],
						"openrect" : [ 0.0, 0.0, 0.0, 0.0 ],
						"openinpresentation" : 0,
						"default_fontsize" : 12.0,
						"default_fontface" : 0,
						"default_fontname" : "Arial",
						"gridonopen" : 0,
						"gridsize" : [ 15.0, 15.0 ],
						"gridsnaponopen" : 0,
						"toolbarvisible" : 1,
						"boxanimatetime" : 200,
						"imprint" : 0,
						"enablehscroll" : 1,
						"enablevscroll" : 1,
						"devicewidth" : 0.0,
						"boxes" : [ 							{
								"box" : 								{
									"maxclass" : "newobj",
									"text" : "t l l",
									"id" : "obj-3",
									"numinlets" : 1,
									"patching_rect" : [ 60.0, 120.0, 32.5, 20.0 ],
									"fontname" : "Arial",
									"numoutlets" : 2,
									"outlettype" : [ "", "" ],
									"fontsize" : 12.0
								}

							}
, 							{
								"box" : 								{
									"maxclass" : "outlet",
									"id" : "obj-2",
									"numinlets" : 1,
									"patching_rect" : [ 60.0, 285.0, 25.0, 25.0 ],
									"numoutlets" : 0,
									"comment" : ""
								}

							}
, 							{
								"box" : 								{
									"maxclass" : "inlet",
									"id" : "obj-1",
									"numinlets" : 0,
									"patching_rect" : [ 60.0, 90.0, 25.0, 25.0 ],
									"numoutlets" : 1,
									"outlettype" : [ "" ],
									"comment" : ""
								}

							}
, 							{
								"box" : 								{
									"maxclass" : "message",
									"text" : "size $1 $2",
									"id" : "obj-94",
									"numinlets" : 2,
									"patching_rect" : [ 75.0, 255.0, 65.0, 18.0 ],
									"fontname" : "Arial",
									"numoutlets" : 1,
									"outlettype" : [ "" ],
									"fontsize" : 12.0
								}

							}
, 							{
								"box" : 								{
									"maxclass" : "newobj",
									"text" : "zl change",
									"id" : "obj-91",
									"numinlets" : 2,
									"patching_rect" : [ 75.0, 225.0, 62.0, 20.0 ],
									"fontname" : "Arial",
									"numoutlets" : 2,
									"outlettype" : [ "", "" ],
									"fontsize" : 12.0
								}

							}
, 							{
								"box" : 								{
									"maxclass" : "newobj",
									"text" : "route planecount type dim",
									"id" : "obj-114",
									"numinlets" : 1,
									"patching_rect" : [ 75.0, 180.0, 227.0, 20.0 ],
									"fontname" : "Arial",
									"numoutlets" : 4,
									"outlettype" : [ "", "", "", "" ],
									"fontsize" : 11.595187
								}

							}
, 							{
								"box" : 								{
									"maxclass" : "newobj",
									"text" : "jit.matrixinfo",
									"id" : "obj-115",
									"numinlets" : 1,
									"patching_rect" : [ 75.0, 150.0, 70.0, 20.0 ],
									"fontname" : "Arial",
									"numoutlets" : 1,
									"outlettype" : [ "" ],
									"fontsize" : 11.595187
								}

							}
 ],
						"lines" : [ 							{
								"patchline" : 								{
									"source" : [ "obj-3", 0 ],
									"destination" : [ "obj-2", 0 ],
									"hidden" : 0,
									"midpoints" : [  ]
								}

							}
, 							{
								"patchline" : 								{
									"source" : [ "obj-3", 1 ],
									"destination" : [ "obj-115", 0 ],
									"hidden" : 0,
									"midpoints" : [  ]
								}

							}
, 							{
								"patchline" : 								{
									"source" : [ "obj-1", 0 ],
									"destination" : [ "obj-3", 0 ],
									"hidden" : 0,
									"midpoints" : [  ]
								}

							}
, 							{
								"patchline" : 								{
									"source" : [ "obj-94", 0 ],
									"destination" : [ "obj-2", 0 ],
									"hidden" : 0,
									"midpoints" : [  ]
								}

							}
, 							{
								"patchline" : 								{
									"source" : [ "obj-115", 0 ],
									"destination" : [ "obj-114", 0 ],
									"hidden" : 0,
									"midpoints" : [  ]
								}

							}
, 							{
								"patchline" : 								{
									"source" : [ "obj-91", 0 ],
									"destination" : [ "obj-94", 0 ],
									"hidden" : 0,
									"midpoints" : [  ]
								}

							}
, 							{
								"patchline" : 								{
									"source" : [ "obj-114", 2 ],
									"destination" : [ "obj-91", 0 ],
									"hidden" : 0,
									"midpoints" : [ 223.166672, 218.5, 84.5, 218.5 ]
								}

							}
 ]
					}
,
					"saved_object_attributes" : 					{
						"fontname" : "Arial",
						"default_fontface" : 0,
						"globalpatchername" : "",
						"default_fontname" : "Arial",
						"fontface" : 0,
						"default_fontsize" : 12.0,
						"fontsize" : 12.0
					}

				}

			}
, 			{
				"box" : 				{
					"maxclass" : "message",
					"text" : "dim 640 480",
					"id" : "obj-31",
					"numinlets" : 2,
					"patching_rect" : [ 420.0, 135.0, 77.0, 18.0 ],
					"fontname" : "Arial",
					"numoutlets" : 1,
					"outlettype" : [ "" ],
					"fontsize" : 12.0
				}

			}
, 			{
				"box" : 				{
					"maxclass" : "message",
					"text" : "stop",
					"id" : "obj-33",
					"numinlets" : 2,
					"patching_rect" : [ 780.0, 360.0, 33.0, 18.0 ],
					"fontname" : "Arial",
					"numoutlets" : 1,
					"outlettype" : [ "" ],
					"fontsize" : 12.0
				}

			}
, 			{
				"box" : 				{
					"maxclass" : "message",
					"text" : "realtime 1, write 25. h263",
					"id" : "obj-22",
					"numinlets" : 2,
					"patching_rect" : [ 780.0, 390.0, 145.0, 18.0 ],
					"fontname" : "Arial",
					"numoutlets" : 1,
					"outlettype" : [ "" ],
					"fontsize" : 12.0
				}

			}
, 			{
				"box" : 				{
					"maxclass" : "message",
					"text" : "read patt.kanji",
					"id" : "obj-30",
					"numinlets" : 2,
					"patching_rect" : [ 330.0, 60.0, 86.0, 18.0 ],
					"fontname" : "Arial",
					"numoutlets" : 1,
					"outlettype" : [ "" ],
					"fontsize" : 12.0
				}

			}
, 			{
				"box" : 				{
					"maxclass" : "message",
					"text" : "read",
					"id" : "obj-29",
					"numinlets" : 2,
					"patching_rect" : [ 315.0, 30.0, 35.0, 18.0 ],
					"fontname" : "Arial",
					"numoutlets" : 1,
					"outlettype" : [ "" ],
					"fontsize" : 12.0
				}

			}
, 			{
				"box" : 				{
					"maxclass" : "message",
					"text" : "read 0 patt.hiro",
					"id" : "obj-28",
					"numinlets" : 2,
					"patching_rect" : [ 345.0, 90.0, 91.0, 18.0 ],
					"fontname" : "Arial",
					"numoutlets" : 1,
					"outlettype" : [ "" ],
					"fontsize" : 12.0
				}

			}
, 			{
				"box" : 				{
					"maxclass" : "toggle",
					"id" : "obj-62",
					"numinlets" : 1,
					"patching_rect" : [ 885.0, 195.0, 20.0, 20.0 ],
					"numoutlets" : 1,
					"outlettype" : [ "int" ]
				}

			}
, 			{
				"box" : 				{
					"maxclass" : "newobj",
					"text" : "p \"auto rotate\"",
					"id" : "obj-13",
					"numinlets" : 2,
					"patching_rect" : [ 930.0, 240.0, 85.0, 20.0 ],
					"fontname" : "Arial",
					"numoutlets" : 1,
					"outlettype" : [ "float" ],
					"fontsize" : 11.595187,
					"patcher" : 					{
						"fileversion" : 1,
						"rect" : [ 25.0, 69.0, 640.0, 480.0 ],
						"bglocked" : 0,
						"defrect" : [ 25.0, 69.0, 640.0, 480.0 ],
						"openrect" : [ 0.0, 0.0, 0.0, 0.0 ],
						"openinpresentation" : 0,
						"default_fontsize" : 11.0,
						"default_fontface" : 0,
						"default_fontname" : "Arial",
						"gridonopen" : 0,
						"gridsize" : [ 15.0, 15.0 ],
						"gridsnaponopen" : 0,
						"toolbarvisible" : 1,
						"boxanimatetime" : 200,
						"imprint" : 0,
						"enablehscroll" : 1,
						"enablevscroll" : 1,
						"devicewidth" : 0.0,
						"boxes" : [ 							{
								"box" : 								{
									"maxclass" : "newobj",
									"text" : "* 1.",
									"id" : "obj-19",
									"numinlets" : 2,
									"patching_rect" : [ 50.0, 162.0, 32.5, 20.0 ],
									"fontname" : "Arial",
									"numoutlets" : 1,
									"outlettype" : [ "float" ],
									"fontsize" : 11.595187
								}

							}
, 							{
								"box" : 								{
									"maxclass" : "newobj",
									"text" : "counter 360",
									"id" : "obj-50",
									"numinlets" : 5,
									"patching_rect" : [ 50.0, 121.0, 73.0, 20.0 ],
									"fontname" : "Arial",
									"numoutlets" : 4,
									"outlettype" : [ "int", "", "", "int" ],
									"fontsize" : 11.595187
								}

							}
, 							{
								"box" : 								{
									"maxclass" : "newobj",
									"text" : "t b",
									"id" : "obj-51",
									"numinlets" : 1,
									"patching_rect" : [ 50.0, 100.0, 23.0, 20.0 ],
									"fontname" : "Arial",
									"numoutlets" : 1,
									"outlettype" : [ "bang" ],
									"fontsize" : 11.595187
								}

							}
, 							{
								"box" : 								{
									"maxclass" : "inlet",
									"id" : "obj-10",
									"numinlets" : 0,
									"patching_rect" : [ 55.0, 40.0, 25.0, 25.0 ],
									"numoutlets" : 1,
									"outlettype" : [ "" ],
									"comment" : ""
								}

							}
, 							{
								"box" : 								{
									"maxclass" : "inlet",
									"id" : "obj-11",
									"numinlets" : 0,
									"patching_rect" : [ 68.0, 40.0, 25.0, 25.0 ],
									"numoutlets" : 1,
									"outlettype" : [ "" ],
									"comment" : ""
								}

							}
, 							{
								"box" : 								{
									"maxclass" : "outlet",
									"id" : "obj-12",
									"numinlets" : 1,
									"patching_rect" : [ 55.0, 242.0, 25.0, 25.0 ],
									"numoutlets" : 0,
									"comment" : ""
								}

							}
 ],
						"lines" : [ 							{
								"patchline" : 								{
									"source" : [ "obj-50", 0 ],
									"destination" : [ "obj-19", 0 ],
									"hidden" : 0,
									"midpoints" : [  ]
								}

							}
, 							{
								"patchline" : 								{
									"source" : [ "obj-51", 0 ],
									"destination" : [ "obj-50", 0 ],
									"hidden" : 0,
									"midpoints" : [  ]
								}

							}
, 							{
								"patchline" : 								{
									"source" : [ "obj-10", 0 ],
									"destination" : [ "obj-51", 0 ],
									"hidden" : 0,
									"midpoints" : [  ]
								}

							}
, 							{
								"patchline" : 								{
									"source" : [ "obj-11", 0 ],
									"destination" : [ "obj-19", 1 ],
									"hidden" : 0,
									"midpoints" : [  ]
								}

							}
, 							{
								"patchline" : 								{
									"source" : [ "obj-19", 0 ],
									"destination" : [ "obj-12", 0 ],
									"hidden" : 0,
									"midpoints" : [  ]
								}

							}
 ]
					}
,
					"saved_object_attributes" : 					{
						"fontname" : "Arial",
						"default_fontface" : 0,
						"globalpatchername" : "",
						"default_fontname" : "Arial",
						"fontface" : 0,
						"default_fontsize" : 11.0,
						"fontsize" : 11.0
					}

				}

			}
, 			{
				"box" : 				{
					"maxclass" : "newobj",
					"text" : "gate",
					"id" : "obj-60",
					"numinlets" : 2,
					"patching_rect" : [ 885.0, 225.0, 33.0, 20.0 ],
					"fontname" : "Arial",
					"numoutlets" : 1,
					"outlettype" : [ "" ],
					"fontsize" : 11.595187
				}

			}
, 			{
				"box" : 				{
					"maxclass" : "newobj",
					"text" : "expr ($f1/360.)*6.283185",
					"id" : "obj-76",
					"numinlets" : 1,
					"patching_rect" : [ 930.0, 315.0, 137.0, 20.0 ],
					"fontname" : "Arial",
					"numoutlets" : 1,
					"outlettype" : [ "" ],
					"fontsize" : 11.595187
				}

			}
, 			{
				"box" : 				{
					"maxclass" : "flonum",
					"id" : "obj-77",
					"numinlets" : 1,
					"patching_rect" : [ 930.0, 285.0, 50.0, 20.0 ],
					"fontname" : "Arial",
					"numoutlets" : 2,
					"outlettype" : [ "float", "bang" ],
					"fontsize" : 11.595187,
					"triscale" : 0.9
				}

			}
, 			{
				"box" : 				{
					"maxclass" : "flonum",
					"id" : "obj-78",
					"numinlets" : 1,
					"patching_rect" : [ 854.0, 281.0, 50.0, 20.0 ],
					"fontname" : "Arial",
					"numoutlets" : 2,
					"outlettype" : [ "float", "bang" ],
					"fontsize" : 11.595187,
					"triscale" : 0.9
				}

			}
, 			{
				"box" : 				{
					"maxclass" : "message",
					"text" : "theta $1",
					"id" : "obj-79",
					"numinlets" : 2,
					"patching_rect" : [ 854.0, 302.0, 50.0, 18.0 ],
					"fontname" : "Arial",
					"numoutlets" : 1,
					"outlettype" : [ "" ],
					"fontsize" : 11.595187
				}

			}
, 			{
				"box" : 				{
					"maxclass" : "comment",
					"text" : "radians",
					"id" : "obj-94",
					"numinlets" : 1,
					"patching_rect" : [ 853.0, 261.0, 62.0, 20.0 ],
					"fontname" : "Arial",
					"numoutlets" : 0,
					"fontsize" : 11.595187
				}

			}
, 			{
				"box" : 				{
					"maxclass" : "comment",
					"text" : "degrees",
					"id" : "obj-95",
					"numinlets" : 1,
					"patching_rect" : [ 943.0, 264.0, 50.0, 20.0 ],
					"fontname" : "Arial",
					"numoutlets" : 0,
					"fontsize" : 11.595187
				}

			}
, 			{
				"box" : 				{
					"maxclass" : "newobj",
					"text" : "jit.op @op !- @val 255",
					"id" : "obj-59",
					"numinlets" : 2,
					"patching_rect" : [ 540.0, 300.0, 130.0, 20.0 ],
					"fontname" : "Arial",
					"numoutlets" : 2,
					"outlettype" : [ "jit_matrix", "" ],
					"fontsize" : 12.0
				}

			}
, 			{
				"box" : 				{
					"maxclass" : "number",
					"id" : "obj-57",
					"numinlets" : 1,
					"patching_rect" : [ 780.0, 207.0, 50.0, 20.0 ],
					"fontname" : "Arial",
					"minimum" : 0,
					"numoutlets" : 2,
					"outlettype" : [ "int", "bang" ],
					"fontsize" : 11.595187,
					"triscale" : 0.9,
					"maximum" : 4
				}

			}
, 			{
				"box" : 				{
					"maxclass" : "message",
					"text" : "boundmode $1",
					"id" : "obj-58",
					"numinlets" : 2,
					"patching_rect" : [ 780.0, 230.0, 86.0, 18.0 ],
					"fontname" : "Arial",
					"numoutlets" : 1,
					"outlettype" : [ "" ],
					"fontsize" : 11.595187
				}

			}
, 			{
				"box" : 				{
					"maxclass" : "comment",
					"text" : "0=ignore(default);\r1=clear;\r2=wrap;\r3=clip;\r4=fold;\r",
					"linecount" : 5,
					"id" : "obj-100",
					"numinlets" : 1,
					"patching_rect" : [ 780.0, 135.0, 103.0, 73.0 ],
					"fontname" : "Arial",
					"numoutlets" : 0,
					"fontsize" : 11.595187
				}

			}
, 			{
				"box" : 				{
					"maxclass" : "newobj",
					"text" : "jit.op @op !- @val 255",
					"id" : "obj-56",
					"numinlets" : 2,
					"patching_rect" : [ 480.0, 135.0, 130.0, 20.0 ],
					"fontname" : "Arial",
					"numoutlets" : 2,
					"outlettype" : [ "jit_matrix", "" ],
					"fontsize" : 12.0
				}

			}
, 			{
				"box" : 				{
					"maxclass" : "message",
					"text" : "setall 255, bang",
					"id" : "obj-55",
					"numinlets" : 2,
					"patching_rect" : [ 525.0, 165.0, 95.0, 18.0 ],
					"fontname" : "Arial",
					"numoutlets" : 1,
					"outlettype" : [ "" ],
					"fontsize" : 12.0
				}

			}
, 			{
				"box" : 				{
					"maxclass" : "newobj",
					"text" : "t l b",
					"id" : "obj-50",
					"numinlets" : 1,
					"patching_rect" : [ 480.0, 165.0, 32.5, 20.0 ],
					"fontname" : "Arial",
					"numoutlets" : 2,
					"outlettype" : [ "", "bang" ],
					"fontsize" : 12.0
				}

			}
, 			{
				"box" : 				{
					"maxclass" : "flonum",
					"id" : "obj-49",
					"numinlets" : 1,
					"patching_rect" : [ 720.0, 210.0, 50.0, 20.0 ],
					"fontname" : "Arial",
					"numoutlets" : 2,
					"outlettype" : [ "float", "bang" ],
					"fontsize" : 12.0
				}

			}
, 			{
				"box" : 				{
					"maxclass" : "message",
					"text" : "zoom_x $1, zoom_y $1",
					"id" : "obj-43",
					"numinlets" : 2,
					"patching_rect" : [ 570.0, 240.0, 135.0, 18.0 ],
					"fontname" : "Arial",
					"numoutlets" : 1,
					"outlettype" : [ "" ],
					"fontsize" : 12.0
				}

			}
, 			{
				"box" : 				{
					"maxclass" : "newobj",
					"text" : "jit.rota @anchor_x 160 @anchor_y 120 @boundmode 1",
					"id" : "obj-38",
					"numinlets" : 1,
					"patching_rect" : [ 540.0, 270.0, 309.0, 20.0 ],
					"fontname" : "Arial",
					"numoutlets" : 2,
					"outlettype" : [ "jit_matrix", "" ],
					"fontsize" : 12.0
				}

			}
, 			{
				"box" : 				{
					"maxclass" : "newobj",
					"text" : "t l l b",
					"id" : "obj-35",
					"numinlets" : 1,
					"patching_rect" : [ 300.0, 255.0, 46.0, 20.0 ],
					"fontname" : "Arial",
					"numoutlets" : 3,
					"outlettype" : [ "", "", "bang" ],
					"fontsize" : 12.0
				}

			}
, 			{
				"box" : 				{
					"maxclass" : "newobj",
					"text" : "jit.matrix 4 char 320 240 @adapt 0",
					"id" : "obj-32",
					"numinlets" : 1,
					"patching_rect" : [ 480.0, 195.0, 194.0, 20.0 ],
					"fontname" : "Arial",
					"numoutlets" : 2,
					"outlettype" : [ "jit_matrix", "" ],
					"fontsize" : 12.0
				}

			}
, 			{
				"box" : 				{
					"maxclass" : "newobj",
					"text" : "print",
					"id" : "obj-27",
					"numinlets" : 1,
					"patching_rect" : [ 630.0, 165.0, 34.0, 20.0 ],
					"fontname" : "Arial",
					"numoutlets" : 0,
					"fontsize" : 12.0
				}

			}
, 			{
				"box" : 				{
					"maxclass" : "message",
					"text" : "read",
					"id" : "obj-18",
					"numinlets" : 2,
					"patching_rect" : [ 540.0, 45.0, 35.0, 18.0 ],
					"fontname" : "Arial",
					"numoutlets" : 1,
					"outlettype" : [ "" ],
					"fontsize" : 12.0
				}

			}
, 			{
				"box" : 				{
					"maxclass" : "message",
					"text" : "read pattHiro.jpg",
					"id" : "obj-16",
					"numinlets" : 2,
					"patching_rect" : [ 540.0, 75.0, 99.0, 18.0 ],
					"fontname" : "Arial",
					"numoutlets" : 1,
					"outlettype" : [ "" ],
					"fontsize" : 12.0
				}

			}
, 			{
				"box" : 				{
					"maxclass" : "newobj",
					"text" : "qmetro",
					"id" : "obj-9",
					"numinlets" : 2,
					"patching_rect" : [ 480.0, 75.0, 48.0, 20.0 ],
					"fontname" : "Arial",
					"numoutlets" : 1,
					"outlettype" : [ "bang" ],
					"fontsize" : 12.0
				}

			}
, 			{
				"box" : 				{
					"maxclass" : "toggle",
					"id" : "obj-12",
					"numinlets" : 1,
					"patching_rect" : [ 480.0, 45.0, 20.0, 20.0 ],
					"numoutlets" : 1,
					"outlettype" : [ "int" ]
				}

			}
, 			{
				"box" : 				{
					"maxclass" : "newobj",
					"text" : "jit.qt.record 320 240",
					"id" : "obj-26",
					"numinlets" : 1,
					"patching_rect" : [ 765.0, 435.0, 117.0, 20.0 ],
					"fontname" : "Arial",
					"numoutlets" : 2,
					"outlettype" : [ "jit_matrix", "" ],
					"fontsize" : 12.0
				}

			}
, 			{
				"box" : 				{
					"maxclass" : "newobj",
					"text" : "t b l",
					"id" : "obj-25",
					"numinlets" : 1,
					"patching_rect" : [ 675.0, 390.0, 33.5, 20.0 ],
					"fontname" : "Arial",
					"numoutlets" : 2,
					"outlettype" : [ "bang", "" ],
					"fontsize" : 12.0
				}

			}
, 			{
				"box" : 				{
					"maxclass" : "newobj",
					"text" : "speedlim 40",
					"id" : "obj-24",
					"numinlets" : 2,
					"patching_rect" : [ 675.0, 360.0, 75.0, 20.0 ],
					"fontname" : "Arial",
					"numoutlets" : 1,
					"outlettype" : [ "" ],
					"fontsize" : 12.0
				}

			}
, 			{
				"box" : 				{
					"maxclass" : "newobj",
					"text" : "jit.qt.movie 320 240 @usedstrect 1 @dstrect 4 3 316 237",
					"id" : "obj-21",
					"numinlets" : 1,
					"patching_rect" : [ 480.0, 105.0, 314.0, 20.0 ],
					"fontname" : "Arial",
					"numoutlets" : 2,
					"outlettype" : [ "jit_matrix", "" ],
					"fontsize" : 12.0
				}

			}
, 			{
				"box" : 				{
					"maxclass" : "newobj",
					"text" : "p headers",
					"id" : "obj-23",
					"numinlets" : 0,
					"patching_rect" : [ 0.0, 75.0, 64.0, 20.0 ],
					"fontname" : "Arial",
					"numoutlets" : 1,
					"outlettype" : [ "" ],
					"fontsize" : 12.0,
					"patcher" : 					{
						"fileversion" : 1,
						"rect" : [ 640.0, 60.0, 640.0, 480.0 ],
						"bglocked" : 0,
						"defrect" : [ 640.0, 60.0, 640.0, 480.0 ],
						"openrect" : [ 0.0, 0.0, 0.0, 0.0 ],
						"openinpresentation" : 0,
						"default_fontsize" : 12.0,
						"default_fontface" : 0,
						"default_fontname" : "Arial",
						"gridonopen" : 0,
						"gridsize" : [ 15.0, 15.0 ],
						"gridsnaponopen" : 0,
						"toolbarvisible" : 1,
						"boxanimatetime" : 200,
						"imprint" : 0,
						"enablehscroll" : 1,
						"enablevscroll" : 1,
						"devicewidth" : 0.0,
						"boxes" : [ 							{
								"box" : 								{
									"maxclass" : "newobj",
									"text" : "loadbang",
									"id" : "obj-2",
									"numinlets" : 1,
									"patching_rect" : [ 90.0, 135.0, 60.0, 20.0 ],
									"fontname" : "Arial",
									"numoutlets" : 1,
									"outlettype" : [ "bang" ],
									"fontsize" : 12.0
								}

							}
, 							{
								"box" : 								{
									"maxclass" : "message",
									"text" : "set 0 $1 $2",
									"id" : "obj-8",
									"numinlets" : 2,
									"patching_rect" : [ 90.0, 300.0, 70.0, 18.0 ],
									"fontname" : "Arial",
									"numoutlets" : 1,
									"outlettype" : [ "" ],
									"fontsize" : 12.0
								}

							}
, 							{
								"box" : 								{
									"maxclass" : "message",
									"text" : "0 area, 1 id, 2 dir, 3 cf, 4 pos_x, 5 pos_y, 6 upper_left_corner_x, 7 upper_left_corner_y, 8 upper_right_corner_x, 9 upper_right_corner_y, 10 bottom_right_corner_x, 11 bottom_right_corner_y, 12 bottom_left_corner_x, 13 bottom_left_corner_y",
									"linecount" : 3,
									"id" : "obj-4",
									"numinlets" : 2,
									"patching_rect" : [ 90.0, 180.0, 546.0, 46.0 ],
									"fontname" : "Arial",
									"numoutlets" : 1,
									"outlettype" : [ "" ],
									"fontsize" : 12.0
								}

							}
, 							{
								"box" : 								{
									"maxclass" : "outlet",
									"id" : "obj-1",
									"numinlets" : 1,
									"patching_rect" : [ 90.0, 390.0, 25.0, 25.0 ],
									"numoutlets" : 0,
									"comment" : ""
								}

							}
 ],
						"lines" : [ 							{
								"patchline" : 								{
									"source" : [ "obj-8", 0 ],
									"destination" : [ "obj-1", 0 ],
									"hidden" : 0,
									"midpoints" : [  ]
								}

							}
, 							{
								"patchline" : 								{
									"source" : [ "obj-4", 0 ],
									"destination" : [ "obj-8", 0 ],
									"hidden" : 0,
									"midpoints" : [  ]
								}

							}
, 							{
								"patchline" : 								{
									"source" : [ "obj-2", 0 ],
									"destination" : [ "obj-4", 0 ],
									"hidden" : 0,
									"midpoints" : [  ]
								}

							}
 ]
					}
,
					"saved_object_attributes" : 					{
						"fontname" : "Arial",
						"default_fontface" : 0,
						"globalpatchername" : "",
						"default_fontname" : "Arial",
						"fontface" : 0,
						"default_fontsize" : 12.0,
						"fontsize" : 12.0
					}

				}

			}
, 			{
				"box" : 				{
					"maxclass" : "jit.cellblock",
					"id" : "obj-20",
					"hscroll" : 0,
					"numinlets" : 2,
					"rowhead" : 1,
					"patching_rect" : [ -101.0, 105.0, 131.0, 253.0 ],
					"cols" : 1,
					"fontname" : "Arial",
					"vscroll" : 0,
					"numoutlets" : 4,
					"colwidth" : 130,
					"outlettype" : [ "list", "", "", "" ],
					"fontsize" : 12.0,
					"rows" : 14
				}

			}
, 			{
				"box" : 				{
					"maxclass" : "jit.cellblock",
					"id" : "obj-54",
					"hscroll" : 0,
					"numinlets" : 2,
					"patching_rect" : [ 30.0, 105.0, 146.0, 252.0 ],
					"cols" : 1,
					"fontname" : "Arial",
					"vscroll" : 0,
					"numoutlets" : 4,
					"outlettype" : [ "list", "", "", "" ],
					"fontsize" : 12.0,
					"rows" : 14
				}

			}
, 			{
				"box" : 				{
					"maxclass" : "newobj",
					"text" : "jit.dimmap @map 0 -1",
					"id" : "obj-46",
					"numinlets" : 1,
					"patching_rect" : [ 75.0, 15.0, 128.0, 20.0 ],
					"fontname" : "Arial",
					"numoutlets" : 2,
					"outlettype" : [ "jit_matrix", "" ],
					"fontsize" : 12.0
				}

			}
, 			{
				"box" : 				{
					"maxclass" : "newobj",
					"text" : "jit.glue 1 float32 1 @rows 14 @columns 1",
					"id" : "obj-44",
					"numinlets" : 14,
					"patching_rect" : [ 75.0, 75.0, 232.0, 20.0 ],
					"fontname" : "Arial",
					"numoutlets" : 2,
					"outlettype" : [ "jit_matrix", "" ],
					"fontsize" : 12.0
				}

			}
, 			{
				"box" : 				{
					"maxclass" : "newobj",
					"text" : "jit.window",
					"id" : "obj-53",
					"numinlets" : 1,
					"patching_rect" : [ 690.0, 465.0, 63.0, 20.0 ],
					"fontname" : "Arial",
					"numoutlets" : 2,
					"outlettype" : [ "bang", "" ],
					"fontsize" : 12.0
				}

			}
, 			{
				"box" : 				{
					"maxclass" : "newobj",
					"text" : "p lcd",
					"id" : "obj-51",
					"numinlets" : 3,
					"patching_rect" : [ 390.0, 315.0, 115.0, 20.0 ],
					"fontname" : "Arial",
					"numoutlets" : 1,
					"outlettype" : [ "jit_matrix" ],
					"fontsize" : 12.0,
					"patcher" : 					{
						"fileversion" : 1,
						"rect" : [ 504.0, 80.0, 698.0, 661.0 ],
						"bglocked" : 0,
						"defrect" : [ 504.0, 80.0, 698.0, 661.0 ],
						"openrect" : [ 0.0, 0.0, 0.0, 0.0 ],
						"openinpresentation" : 0,
						"default_fontsize" : 12.0,
						"default_fontface" : 0,
						"default_fontname" : "Arial",
						"gridonopen" : 0,
						"gridsize" : [ 15.0, 15.0 ],
						"gridsnaponopen" : 0,
						"toolbarvisible" : 1,
						"boxanimatetime" : 200,
						"imprint" : 0,
						"enablehscroll" : 1,
						"enablevscroll" : 1,
						"devicewidth" : 0.0,
						"boxes" : [ 							{
								"box" : 								{
									"maxclass" : "button",
									"id" : "obj-7",
									"numinlets" : 1,
									"patching_rect" : [ 90.0, 540.0, 20.0, 20.0 ],
									"numoutlets" : 1,
									"outlettype" : [ "bang" ]
								}

							}
, 							{
								"box" : 								{
									"maxclass" : "newobj",
									"text" : "p data-display",
									"id" : "obj-27",
									"numinlets" : 1,
									"patching_rect" : [ 255.0, 405.0, 85.0, 20.0 ],
									"fontname" : "Arial",
									"numoutlets" : 1,
									"outlettype" : [ "" ],
									"fontsize" : 12.0,
									"patcher" : 									{
										"fileversion" : 1,
										"rect" : [ 500.0, 91.0, 780.0, 479.0 ],
										"bglocked" : 0,
										"defrect" : [ 500.0, 91.0, 780.0, 479.0 ],
										"openrect" : [ 0.0, 0.0, 0.0, 0.0 ],
										"openinpresentation" : 0,
										"default_fontsize" : 12.0,
										"default_fontface" : 0,
										"default_fontname" : "Arial",
										"gridonopen" : 0,
										"gridsize" : [ 15.0, 15.0 ],
										"gridsnaponopen" : 0,
										"toolbarvisible" : 1,
										"boxanimatetime" : 200,
										"imprint" : 0,
										"enablehscroll" : 1,
										"enablevscroll" : 1,
										"devicewidth" : 0.0,
										"boxes" : [ 											{
												"box" : 												{
													"maxclass" : "number",
													"id" : "obj-12",
													"numinlets" : 1,
													"patching_rect" : [ 435.0, 180.0, 50.0, 20.0 ],
													"fontname" : "Arial",
													"numoutlets" : 2,
													"outlettype" : [ "int", "bang" ],
													"fontsize" : 12.0
												}

											}
, 											{
												"box" : 												{
													"maxclass" : "number",
													"id" : "obj-7",
													"numinlets" : 1,
													"patching_rect" : [ 375.0, 255.0, 50.0, 20.0 ],
													"fontname" : "Arial",
													"numoutlets" : 2,
													"outlettype" : [ "int", "bang" ],
													"fontsize" : 12.0
												}

											}
, 											{
												"box" : 												{
													"maxclass" : "newobj",
													"text" : "change",
													"id" : "obj-4",
													"numinlets" : 1,
													"patching_rect" : [ 375.0, 225.0, 50.0, 20.0 ],
													"fontname" : "Arial",
													"numoutlets" : 3,
													"outlettype" : [ "", "int", "int" ],
													"fontsize" : 12.0
												}

											}
, 											{
												"box" : 												{
													"maxclass" : "newobj",
													"text" : "zl len",
													"id" : "obj-1",
													"numinlets" : 2,
													"patching_rect" : [ 375.0, 195.0, 39.0, 20.0 ],
													"fontname" : "Arial",
													"numoutlets" : 2,
													"outlettype" : [ "", "" ],
													"fontsize" : 12.0
												}

											}
, 											{
												"box" : 												{
													"maxclass" : "newobj",
													"text" : "prepend write",
													"id" : "obj-10",
													"numinlets" : 1,
													"patching_rect" : [ 75.0, 420.0, 83.0, 20.0 ],
													"fontname" : "Arial",
													"numoutlets" : 1,
													"outlettype" : [ "" ],
													"fontsize" : 12.0
												}

											}
, 											{
												"box" : 												{
													"maxclass" : "message",
													"text" : "$2 $1 $4",
													"id" : "obj-8",
													"numinlets" : 2,
													"patching_rect" : [ 75.0, 360.0, 57.0, 18.0 ],
													"fontname" : "Arial",
													"numoutlets" : 1,
													"outlettype" : [ "" ],
													"fontsize" : 12.0
												}

											}
, 											{
												"box" : 												{
													"maxclass" : "newobj",
													"text" : "sprintf symout id %d | area %d | cf %.2f",
													"id" : "obj-6",
													"numinlets" : 3,
													"patching_rect" : [ 75.0, 390.0, 219.0, 20.0 ],
													"fontname" : "Arial",
													"numoutlets" : 1,
													"outlettype" : [ "" ],
													"fontsize" : 12.0
												}

											}
, 											{
												"box" : 												{
													"maxclass" : "newobj",
													"text" : "t l l",
													"id" : "obj-17",
													"numinlets" : 1,
													"patching_rect" : [ 75.0, 300.0, 33.5, 20.0 ],
													"fontname" : "Arial",
													"numoutlets" : 2,
													"outlettype" : [ "", "" ],
													"fontsize" : 12.0
												}

											}
, 											{
												"box" : 												{
													"maxclass" : "message",
													"text" : "moveto $5 $6, frgb 255 0 0",
													"id" : "obj-16",
													"numinlets" : 2,
													"patching_rect" : [ 90.0, 330.0, 154.0, 18.0 ],
													"fontname" : "Arial",
													"numoutlets" : 1,
													"outlettype" : [ "" ],
													"fontsize" : 12.0
												}

											}
, 											{
												"box" : 												{
													"maxclass" : "comment",
													"text" : "draw bounding box",
													"id" : "obj-14",
													"numinlets" : 1,
													"patching_rect" : [ 375.0, 330.0, 150.0, 20.0 ],
													"fontname" : "Arial",
													"numoutlets" : 0,
													"fontsize" : 12.0
												}

											}
, 											{
												"box" : 												{
													"maxclass" : "newobj",
													"text" : "* 2",
													"id" : "obj-44",
													"numinlets" : 2,
													"patching_rect" : [ 135.0, 285.0, 32.5, 20.0 ],
													"fontname" : "Arial",
													"numoutlets" : 1,
													"outlettype" : [ "int" ],
													"fontsize" : 12.0
												}

											}
, 											{
												"box" : 												{
													"maxclass" : "newobj",
													"text" : "zl rot",
													"id" : "obj-39",
													"numinlets" : 2,
													"patching_rect" : [ 330.0, 330.0, 37.0, 20.0 ],
													"fontname" : "Arial",
													"numoutlets" : 2,
													"outlettype" : [ "", "" ],
													"fontsize" : 12.0
												}

											}
, 											{
												"box" : 												{
													"maxclass" : "message",
													"text" : "$3",
													"id" : "obj-36",
													"numinlets" : 2,
													"patching_rect" : [ 135.0, 255.0, 32.5, 18.0 ],
													"fontname" : "Arial",
													"numoutlets" : 1,
													"outlettype" : [ "" ],
													"fontsize" : 12.0
												}

											}
, 											{
												"box" : 												{
													"maxclass" : "newobj",
													"text" : "zl slice 6",
													"id" : "obj-33",
													"numinlets" : 2,
													"patching_rect" : [ 75.0, 255.0, 57.0, 20.0 ],
													"fontname" : "Arial",
													"numoutlets" : 2,
													"outlettype" : [ "", "" ],
													"fontsize" : 12.0
												}

											}
, 											{
												"box" : 												{
													"maxclass" : "newobj",
													"text" : "gate",
													"id" : "obj-30",
													"numinlets" : 2,
													"patching_rect" : [ 75.0, 225.0, 34.0, 20.0 ],
													"fontname" : "Arial",
													"numoutlets" : 1,
													"outlettype" : [ "" ],
													"fontsize" : 12.0
												}

											}
, 											{
												"box" : 												{
													"maxclass" : "newobj",
													"text" : "!= -1",
													"id" : "obj-29",
													"numinlets" : 2,
													"patching_rect" : [ 75.0, 195.0, 35.0, 20.0 ],
													"fontname" : "Arial",
													"numoutlets" : 1,
													"outlettype" : [ "int" ],
													"fontsize" : 12.0
												}

											}
, 											{
												"box" : 												{
													"maxclass" : "message",
													"text" : "$2",
													"id" : "obj-28",
													"numinlets" : 2,
													"patching_rect" : [ 75.0, 165.0, 32.5, 18.0 ],
													"fontname" : "Arial",
													"numoutlets" : 1,
													"outlettype" : [ "" ],
													"fontsize" : 12.0
												}

											}
, 											{
												"box" : 												{
													"maxclass" : "newobj",
													"text" : "t l l",
													"id" : "obj-26",
													"numinlets" : 1,
													"patching_rect" : [ 60.0, 135.0, 33.5, 20.0 ],
													"fontname" : "Arial",
													"numoutlets" : 2,
													"outlettype" : [ "", "" ],
													"fontsize" : 12.0
												}

											}
, 											{
												"box" : 												{
													"maxclass" : "newobj",
													"text" : "jit.iter",
													"id" : "obj-13",
													"numinlets" : 1,
													"patching_rect" : [ 60.0, 105.0, 46.0, 20.0 ],
													"fontname" : "Arial",
													"numoutlets" : 3,
													"outlettype" : [ "", "", "" ],
													"fontsize" : 12.0
												}

											}
, 											{
												"box" : 												{
													"maxclass" : "message",
													"text" : "pensize 1 1, frgb 255 0 0, linesegment $1 $2 $3 $4, frgb 0 255 0, linesegment $3 $4 $5 $6, frgb 0 0 255, linesegment $5 $6 $7 $8, frgb 0 255 255, linesegment $7 $8 $1 $2",
													"linecount" : 3,
													"id" : "obj-9",
													"numinlets" : 2,
													"patching_rect" : [ 330.0, 360.0, 459.0, 46.0 ],
													"fontname" : "Arial",
													"numoutlets" : 1,
													"outlettype" : [ "" ],
													"fontsize" : 12.0
												}

											}
, 											{
												"box" : 												{
													"maxclass" : "inlet",
													"id" : "obj-24",
													"numinlets" : 0,
													"patching_rect" : [ 60.0, 45.0, 25.0, 25.0 ],
													"numoutlets" : 1,
													"outlettype" : [ "" ],
													"comment" : ""
												}

											}
, 											{
												"box" : 												{
													"maxclass" : "outlet",
													"id" : "obj-25",
													"numinlets" : 1,
													"patching_rect" : [ 160.0, 468.0, 25.0, 25.0 ],
													"numoutlets" : 0,
													"comment" : ""
												}

											}
 ],
										"lines" : [ 											{
												"patchline" : 												{
													"source" : [ "obj-30", 0 ],
													"destination" : [ "obj-33", 0 ],
													"hidden" : 0,
													"midpoints" : [  ]
												}

											}
, 											{
												"patchline" : 												{
													"source" : [ "obj-36", 0 ],
													"destination" : [ "obj-44", 0 ],
													"hidden" : 0,
													"midpoints" : [  ]
												}

											}
, 											{
												"patchline" : 												{
													"source" : [ "obj-44", 0 ],
													"destination" : [ "obj-39", 1 ],
													"hidden" : 0,
													"midpoints" : [ 144.5, 311.0, 357.5, 311.0 ]
												}

											}
, 											{
												"patchline" : 												{
													"source" : [ "obj-39", 0 ],
													"destination" : [ "obj-9", 0 ],
													"hidden" : 0,
													"midpoints" : [  ]
												}

											}
, 											{
												"patchline" : 												{
													"source" : [ "obj-29", 0 ],
													"destination" : [ "obj-30", 0 ],
													"hidden" : 0,
													"midpoints" : [  ]
												}

											}
, 											{
												"patchline" : 												{
													"source" : [ "obj-28", 0 ],
													"destination" : [ "obj-29", 0 ],
													"hidden" : 0,
													"midpoints" : [  ]
												}

											}
, 											{
												"patchline" : 												{
													"source" : [ "obj-30", 0 ],
													"destination" : [ "obj-36", 0 ],
													"hidden" : 0,
													"midpoints" : [ 84.5, 249.5, 144.5, 249.5 ]
												}

											}
, 											{
												"patchline" : 												{
													"source" : [ "obj-13", 0 ],
													"destination" : [ "obj-26", 0 ],
													"hidden" : 0,
													"midpoints" : [  ]
												}

											}
, 											{
												"patchline" : 												{
													"source" : [ "obj-26", 1 ],
													"destination" : [ "obj-28", 0 ],
													"hidden" : 0,
													"midpoints" : [  ]
												}

											}
, 											{
												"patchline" : 												{
													"source" : [ "obj-26", 0 ],
													"destination" : [ "obj-30", 1 ],
													"hidden" : 0,
													"midpoints" : [ 69.5, 219.5, 99.5, 219.5 ]
												}

											}
, 											{
												"patchline" : 												{
													"source" : [ "obj-24", 0 ],
													"destination" : [ "obj-13", 0 ],
													"hidden" : 0,
													"midpoints" : [  ]
												}

											}
, 											{
												"patchline" : 												{
													"source" : [ "obj-16", 0 ],
													"destination" : [ "obj-25", 0 ],
													"hidden" : 0,
													"midpoints" : [ 99.5, 453.5, 169.5, 453.5 ]
												}

											}
, 											{
												"patchline" : 												{
													"source" : [ "obj-9", 0 ],
													"destination" : [ "obj-25", 0 ],
													"hidden" : 0,
													"midpoints" : [ 339.5, 436.5, 169.5, 436.5 ]
												}

											}
, 											{
												"patchline" : 												{
													"source" : [ "obj-10", 0 ],
													"destination" : [ "obj-25", 0 ],
													"hidden" : 0,
													"midpoints" : [ 84.5, 453.5, 169.5, 453.5 ]
												}

											}
, 											{
												"patchline" : 												{
													"source" : [ "obj-17", 0 ],
													"destination" : [ "obj-8", 0 ],
													"hidden" : 0,
													"midpoints" : [  ]
												}

											}
, 											{
												"patchline" : 												{
													"source" : [ "obj-33", 0 ],
													"destination" : [ "obj-17", 0 ],
													"hidden" : 0,
													"midpoints" : [  ]
												}

											}
, 											{
												"patchline" : 												{
													"source" : [ "obj-17", 1 ],
													"destination" : [ "obj-16", 0 ],
													"hidden" : 0,
													"midpoints" : [  ]
												}

											}
, 											{
												"patchline" : 												{
													"source" : [ "obj-8", 0 ],
													"destination" : [ "obj-6", 0 ],
													"hidden" : 0,
													"midpoints" : [  ]
												}

											}
, 											{
												"patchline" : 												{
													"source" : [ "obj-6", 0 ],
													"destination" : [ "obj-10", 0 ],
													"hidden" : 0,
													"midpoints" : [  ]
												}

											}
, 											{
												"patchline" : 												{
													"source" : [ "obj-30", 0 ],
													"destination" : [ "obj-1", 0 ],
													"hidden" : 0,
													"midpoints" : [  ]
												}

											}
, 											{
												"patchline" : 												{
													"source" : [ "obj-1", 0 ],
													"destination" : [ "obj-4", 0 ],
													"hidden" : 0,
													"midpoints" : [  ]
												}

											}
, 											{
												"patchline" : 												{
													"source" : [ "obj-4", 0 ],
													"destination" : [ "obj-7", 0 ],
													"hidden" : 0,
													"midpoints" : [  ]
												}

											}
, 											{
												"patchline" : 												{
													"source" : [ "obj-12", 0 ],
													"destination" : [ "obj-4", 0 ],
													"hidden" : 0,
													"midpoints" : [  ]
												}

											}
, 											{
												"patchline" : 												{
													"source" : [ "obj-33", 1 ],
													"destination" : [ "obj-39", 0 ],
													"hidden" : 0,
													"midpoints" : [ 122.5, 319.0, 339.5, 319.0 ]
												}

											}
 ]
									}
,
									"saved_object_attributes" : 									{
										"fontname" : "Arial",
										"default_fontface" : 0,
										"globalpatchername" : "",
										"default_fontname" : "Arial",
										"fontface" : 0,
										"default_fontsize" : 12.0,
										"fontsize" : 12.0
									}

								}

							}
, 							{
								"box" : 								{
									"maxclass" : "newobj",
									"text" : "p fps-display",
									"id" : "obj-76",
									"numinlets" : 2,
									"patching_rect" : [ 150.0, 405.0, 78.0, 20.0 ],
									"fontname" : "Arial",
									"numoutlets" : 1,
									"outlettype" : [ "" ],
									"fontsize" : 12.0,
									"patcher" : 									{
										"fileversion" : 1,
										"rect" : [ 609.0, 114.0, 640.0, 480.0 ],
										"bglocked" : 0,
										"defrect" : [ 609.0, 114.0, 640.0, 480.0 ],
										"openrect" : [ 0.0, 0.0, 0.0, 0.0 ],
										"openinpresentation" : 0,
										"default_fontsize" : 12.0,
										"default_fontface" : 0,
										"default_fontname" : "Arial",
										"gridonopen" : 0,
										"gridsize" : [ 15.0, 15.0 ],
										"gridsnaponopen" : 0,
										"toolbarvisible" : 1,
										"boxanimatetime" : 200,
										"imprint" : 0,
										"enablehscroll" : 1,
										"enablevscroll" : 1,
										"devicewidth" : 0.0,
										"boxes" : [ 											{
												"box" : 												{
													"maxclass" : "newobj",
													"text" : "f",
													"id" : "obj-4",
													"numinlets" : 2,
													"patching_rect" : [ 60.0, 345.0, 32.5, 20.0 ],
													"fontname" : "Arial",
													"numoutlets" : 1,
													"outlettype" : [ "float" ],
													"fontsize" : 12.0
												}

											}
, 											{
												"box" : 												{
													"maxclass" : "newobj",
													"text" : "f",
													"id" : "obj-3",
													"numinlets" : 2,
													"patching_rect" : [ 105.0, 315.0, 32.5, 20.0 ],
													"fontname" : "Arial",
													"numoutlets" : 1,
													"outlettype" : [ "float" ],
													"fontsize" : 12.0
												}

											}
, 											{
												"box" : 												{
													"maxclass" : "newobj",
													"text" : "t b f",
													"id" : "obj-2",
													"numinlets" : 1,
													"patching_rect" : [ 60.0, 285.0, 32.5, 20.0 ],
													"fontname" : "Arial",
													"numoutlets" : 2,
													"outlettype" : [ "bang", "float" ],
													"fontsize" : 12.0
												}

											}
, 											{
												"box" : 												{
													"maxclass" : "newobj",
													"text" : "pack 0 0 0 0 0 0 0 0 0 0 0 0",
													"id" : "obj-59",
													"numinlets" : 12,
													"patching_rect" : [ 60.0, 195.0, 175.0, 20.0 ],
													"fontname" : "Arial",
													"numoutlets" : 1,
													"outlettype" : [ "" ],
													"fontsize" : 11.595187
												}

											}
, 											{
												"box" : 												{
													"maxclass" : "newobj",
													"text" : "bucket 11",
													"id" : "obj-60",
													"numinlets" : 1,
													"patching_rect" : [ 74.181824, 169.0, 161.0, 20.0 ],
													"fontname" : "Arial",
													"numoutlets" : 11,
													"outlettype" : [ "", "", "", "", "", "", "", "", "", "", "" ],
													"fontsize" : 11.595187
												}

											}
, 											{
												"box" : 												{
													"maxclass" : "newobj",
													"text" : "prepend write",
													"id" : "obj-69",
													"numinlets" : 1,
													"patching_rect" : [ 60.0, 435.0, 83.0, 20.0 ],
													"fontname" : "Arial",
													"numoutlets" : 1,
													"outlettype" : [ "" ],
													"fontsize" : 12.0
												}

											}
, 											{
												"box" : 												{
													"maxclass" : "newobj",
													"text" : "t f b",
													"id" : "obj-66",
													"numinlets" : 1,
													"patching_rect" : [ 60.0, 375.0, 32.5, 20.0 ],
													"fontname" : "Arial",
													"numoutlets" : 2,
													"outlettype" : [ "float", "bang" ],
													"fontsize" : 12.0
												}

											}
, 											{
												"box" : 												{
													"maxclass" : "newobj",
													"text" : "b",
													"id" : "obj-65",
													"numinlets" : 1,
													"patching_rect" : [ 75.0, 105.0, 32.5, 20.0 ],
													"fontname" : "Arial",
													"numoutlets" : 2,
													"outlettype" : [ "bang", "bang" ],
													"fontsize" : 12.0
												}

											}
, 											{
												"box" : 												{
													"maxclass" : "newobj",
													"text" : "sprintf symout %.2f fps",
													"id" : "obj-62",
													"numinlets" : 1,
													"patching_rect" : [ 60.0, 405.0, 132.0, 20.0 ],
													"fontname" : "Arial",
													"numoutlets" : 1,
													"outlettype" : [ "" ],
													"fontsize" : 12.0
												}

											}
, 											{
												"box" : 												{
													"maxclass" : "message",
													"text" : "moveto 10 20, pensize 1 1",
													"id" : "obj-61",
													"numinlets" : 2,
													"patching_rect" : [ 210.0, 405.0, 151.0, 18.0 ],
													"fontname" : "Arial",
													"numoutlets" : 1,
													"outlettype" : [ "" ],
													"fontsize" : 12.0
												}

											}
, 											{
												"box" : 												{
													"maxclass" : "newobj",
													"text" : "!/ 1000.",
													"id" : "obj-54",
													"numinlets" : 2,
													"patching_rect" : [ 60.0, 255.0, 51.0, 20.0 ],
													"fontname" : "Arial",
													"numoutlets" : 1,
													"outlettype" : [ "float" ],
													"fontsize" : 12.0
												}

											}
, 											{
												"box" : 												{
													"maxclass" : "newobj",
													"text" : "mean",
													"id" : "obj-51",
													"numinlets" : 1,
													"patching_rect" : [ 60.0, 225.0, 41.0, 20.0 ],
													"fontname" : "Arial",
													"numoutlets" : 2,
													"outlettype" : [ "float", "int" ],
													"fontsize" : 12.0
												}

											}
, 											{
												"box" : 												{
													"maxclass" : "newobj",
													"text" : "p cputimer",
													"id" : "obj-49",
													"numinlets" : 2,
													"patching_rect" : [ 75.0, 135.0, 65.0, 20.0 ],
													"fontname" : "Arial",
													"numoutlets" : 1,
													"outlettype" : [ "float" ],
													"fontsize" : 11.595187,
													"patcher" : 													{
														"fileversion" : 1,
														"rect" : [ 525.0, 182.0, 197.0, 237.0 ],
														"bglocked" : 0,
														"defrect" : [ 525.0, 182.0, 197.0, 237.0 ],
														"openrect" : [ 0.0, 0.0, 0.0, 0.0 ],
														"openinpresentation" : 0,
														"default_fontsize" : 11.595187,
														"default_fontface" : 0,
														"default_fontname" : "Arial",
														"gridonopen" : 0,
														"gridsize" : [ 15.0, 15.0 ],
														"gridsnaponopen" : 0,
														"toolbarvisible" : 1,
														"boxanimatetime" : 200,
														"imprint" : 0,
														"enablehscroll" : 1,
														"enablevscroll" : 1,
														"devicewidth" : 0.0,
														"boxes" : [ 															{
																"box" : 																{
																	"maxclass" : "outlet",
																	"id" : "obj-1",
																	"numinlets" : 1,
																	"patching_rect" : [ 34.0, 173.0, 25.0, 25.0 ],
																	"numoutlets" : 0,
																	"comment" : "interval in ms is reported here"
																}

															}
, 															{
																"box" : 																{
																	"maxclass" : "newobj",
																	"text" : "b 1",
																	"id" : "obj-2",
																	"numinlets" : 1,
																	"patching_rect" : [ 107.0, 78.0, 27.0, 20.0 ],
																	"fontname" : "Arial",
																	"numoutlets" : 1,
																	"outlettype" : [ "bang" ],
																	"fontsize" : 11.595187
																}

															}
, 															{
																"box" : 																{
																	"maxclass" : "newobj",
																	"text" : "cpuclock",
																	"id" : "obj-3",
																	"numinlets" : 1,
																	"patching_rect" : [ 107.0, 104.0, 56.0, 20.0 ],
																	"fontname" : "Arial",
																	"numoutlets" : 1,
																	"outlettype" : [ "float" ],
																	"fontsize" : 11.595187
																}

															}
, 															{
																"box" : 																{
																	"maxclass" : "newobj",
																	"text" : "- 0.",
																	"id" : "obj-4",
																	"numinlets" : 2,
																	"patching_rect" : [ 34.0, 143.0, 32.5, 20.0 ],
																	"fontname" : "Arial",
																	"numoutlets" : 1,
																	"outlettype" : [ "float" ],
																	"fontsize" : 11.595187
																}

															}
, 															{
																"box" : 																{
																	"maxclass" : "newobj",
																	"text" : "b 1",
																	"id" : "obj-5",
																	"numinlets" : 1,
																	"patching_rect" : [ 48.0, 78.0, 27.0, 20.0 ],
																	"fontname" : "Arial",
																	"numoutlets" : 1,
																	"outlettype" : [ "bang" ],
																	"fontsize" : 11.595187
																}

															}
, 															{
																"box" : 																{
																	"maxclass" : "newobj",
																	"text" : "cpuclock",
																	"id" : "obj-6",
																	"numinlets" : 1,
																	"patching_rect" : [ 47.5, 104.0, 56.0, 20.0 ],
																	"fontname" : "Arial",
																	"numoutlets" : 1,
																	"outlettype" : [ "float" ],
																	"fontsize" : 11.595187
																}

															}
, 															{
																"box" : 																{
																	"maxclass" : "inlet",
																	"id" : "obj-7",
																	"numinlets" : 0,
																	"patching_rect" : [ 107.0, 47.0, 25.0, 25.0 ],
																	"numoutlets" : 1,
																	"outlettype" : [ "bang" ],
																	"comment" : "bang stops timing and reports interval"
																}

															}
, 															{
																"box" : 																{
																	"maxclass" : "inlet",
																	"id" : "obj-8",
																	"numinlets" : 0,
																	"patching_rect" : [ 48.0, 47.0, 25.0, 25.0 ],
																	"numoutlets" : 1,
																	"outlettype" : [ "bang" ],
																	"comment" : "bang starts timing interval"
																}

															}
 ],
														"lines" : [ 															{
																"patchline" : 																{
																	"source" : [ "obj-6", 0 ],
																	"destination" : [ "obj-4", 1 ],
																	"hidden" : 0,
																	"midpoints" : [  ]
																}

															}
, 															{
																"patchline" : 																{
																	"source" : [ "obj-4", 0 ],
																	"destination" : [ "obj-1", 0 ],
																	"hidden" : 0,
																	"midpoints" : [  ]
																}

															}
, 															{
																"patchline" : 																{
																	"source" : [ "obj-3", 0 ],
																	"destination" : [ "obj-4", 0 ],
																	"hidden" : 0,
																	"midpoints" : [  ]
																}

															}
, 															{
																"patchline" : 																{
																	"source" : [ "obj-7", 0 ],
																	"destination" : [ "obj-2", 0 ],
																	"hidden" : 0,
																	"midpoints" : [  ]
																}

															}
, 															{
																"patchline" : 																{
																	"source" : [ "obj-2", 0 ],
																	"destination" : [ "obj-3", 0 ],
																	"hidden" : 0,
																	"midpoints" : [  ]
																}

															}
, 															{
																"patchline" : 																{
																	"source" : [ "obj-5", 0 ],
																	"destination" : [ "obj-6", 0 ],
																	"hidden" : 0,
																	"midpoints" : [  ]
																}

															}
, 															{
																"patchline" : 																{
																	"source" : [ "obj-8", 0 ],
																	"destination" : [ "obj-5", 0 ],
																	"hidden" : 0,
																	"midpoints" : [  ]
																}

															}
 ]
													}
,
													"saved_object_attributes" : 													{
														"fontname" : "Arial",
														"default_fontface" : 0,
														"globalpatchername" : "",
														"default_fontname" : "Arial",
														"fontface" : 0,
														"default_fontsize" : 11.595187,
														"fontsize" : 11.595187
													}

												}

											}
, 											{
												"box" : 												{
													"maxclass" : "inlet",
													"id" : "obj-73",
													"numinlets" : 0,
													"patching_rect" : [ 75.0, 45.0, 25.0, 25.0 ],
													"numoutlets" : 1,
													"outlettype" : [ "bang" ],
													"comment" : ""
												}

											}
, 											{
												"box" : 												{
													"maxclass" : "inlet",
													"id" : "obj-74",
													"numinlets" : 0,
													"patching_rect" : [ 105.0, 45.0, 25.0, 25.0 ],
													"numoutlets" : 1,
													"outlettype" : [ "" ],
													"comment" : ""
												}

											}
, 											{
												"box" : 												{
													"maxclass" : "outlet",
													"id" : "obj-75",
													"numinlets" : 1,
													"patching_rect" : [ 130.0, 500.0, 25.0, 25.0 ],
													"numoutlets" : 0,
													"comment" : ""
												}

											}
 ],
										"lines" : [ 											{
												"patchline" : 												{
													"source" : [ "obj-2", 0 ],
													"destination" : [ "obj-4", 0 ],
													"hidden" : 0,
													"midpoints" : [  ]
												}

											}
, 											{
												"patchline" : 												{
													"source" : [ "obj-4", 0 ],
													"destination" : [ "obj-66", 0 ],
													"hidden" : 0,
													"midpoints" : [  ]
												}

											}
, 											{
												"patchline" : 												{
													"source" : [ "obj-3", 0 ],
													"destination" : [ "obj-4", 1 ],
													"hidden" : 0,
													"midpoints" : [  ]
												}

											}
, 											{
												"patchline" : 												{
													"source" : [ "obj-74", 0 ],
													"destination" : [ "obj-3", 0 ],
													"hidden" : 0,
													"midpoints" : [  ]
												}

											}
, 											{
												"patchline" : 												{
													"source" : [ "obj-2", 1 ],
													"destination" : [ "obj-3", 1 ],
													"hidden" : 0,
													"midpoints" : [  ]
												}

											}
, 											{
												"patchline" : 												{
													"source" : [ "obj-54", 0 ],
													"destination" : [ "obj-2", 0 ],
													"hidden" : 0,
													"midpoints" : [  ]
												}

											}
, 											{
												"patchline" : 												{
													"source" : [ "obj-49", 0 ],
													"destination" : [ "obj-59", 0 ],
													"hidden" : 0,
													"midpoints" : [  ]
												}

											}
, 											{
												"patchline" : 												{
													"source" : [ "obj-49", 0 ],
													"destination" : [ "obj-60", 0 ],
													"hidden" : 0,
													"midpoints" : [  ]
												}

											}
, 											{
												"patchline" : 												{
													"source" : [ "obj-59", 0 ],
													"destination" : [ "obj-51", 0 ],
													"hidden" : 0,
													"midpoints" : [  ]
												}

											}
, 											{
												"patchline" : 												{
													"source" : [ "obj-60", 10 ],
													"destination" : [ "obj-59", 11 ],
													"hidden" : 0,
													"midpoints" : [  ]
												}

											}
, 											{
												"patchline" : 												{
													"source" : [ "obj-60", 9 ],
													"destination" : [ "obj-59", 10 ],
													"hidden" : 0,
													"midpoints" : [  ]
												}

											}
, 											{
												"patchline" : 												{
													"source" : [ "obj-60", 8 ],
													"destination" : [ "obj-59", 9 ],
													"hidden" : 0,
													"midpoints" : [  ]
												}

											}
, 											{
												"patchline" : 												{
													"source" : [ "obj-60", 7 ],
													"destination" : [ "obj-59", 8 ],
													"hidden" : 0,
													"midpoints" : [  ]
												}

											}
, 											{
												"patchline" : 												{
													"source" : [ "obj-60", 6 ],
													"destination" : [ "obj-59", 7 ],
													"hidden" : 0,
													"midpoints" : [  ]
												}

											}
, 											{
												"patchline" : 												{
													"source" : [ "obj-60", 5 ],
													"destination" : [ "obj-59", 6 ],
													"hidden" : 0,
													"midpoints" : [  ]
												}

											}
, 											{
												"patchline" : 												{
													"source" : [ "obj-60", 4 ],
													"destination" : [ "obj-59", 5 ],
													"hidden" : 0,
													"midpoints" : [  ]
												}

											}
, 											{
												"patchline" : 												{
													"source" : [ "obj-60", 3 ],
													"destination" : [ "obj-59", 4 ],
													"hidden" : 0,
													"midpoints" : [  ]
												}

											}
, 											{
												"patchline" : 												{
													"source" : [ "obj-60", 2 ],
													"destination" : [ "obj-59", 3 ],
													"hidden" : 0,
													"midpoints" : [  ]
												}

											}
, 											{
												"patchline" : 												{
													"source" : [ "obj-60", 1 ],
													"destination" : [ "obj-59", 2 ],
													"hidden" : 0,
													"midpoints" : [  ]
												}

											}
, 											{
												"patchline" : 												{
													"source" : [ "obj-60", 0 ],
													"destination" : [ "obj-59", 1 ],
													"hidden" : 0,
													"midpoints" : [  ]
												}

											}
, 											{
												"patchline" : 												{
													"source" : [ "obj-51", 0 ],
													"destination" : [ "obj-54", 0 ],
													"hidden" : 0,
													"midpoints" : [  ]
												}

											}
, 											{
												"patchline" : 												{
													"source" : [ "obj-65", 1 ],
													"destination" : [ "obj-49", 1 ],
													"hidden" : 0,
													"midpoints" : [  ]
												}

											}
, 											{
												"patchline" : 												{
													"source" : [ "obj-65", 0 ],
													"destination" : [ "obj-49", 0 ],
													"hidden" : 0,
													"midpoints" : [  ]
												}

											}
, 											{
												"patchline" : 												{
													"source" : [ "obj-66", 1 ],
													"destination" : [ "obj-61", 0 ],
													"hidden" : 0,
													"midpoints" : [  ]
												}

											}
, 											{
												"patchline" : 												{
													"source" : [ "obj-66", 0 ],
													"destination" : [ "obj-62", 0 ],
													"hidden" : 0,
													"midpoints" : [  ]
												}

											}
, 											{
												"patchline" : 												{
													"source" : [ "obj-62", 0 ],
													"destination" : [ "obj-69", 0 ],
													"hidden" : 0,
													"midpoints" : [  ]
												}

											}
, 											{
												"patchline" : 												{
													"source" : [ "obj-73", 0 ],
													"destination" : [ "obj-65", 0 ],
													"hidden" : 0,
													"midpoints" : [  ]
												}

											}
, 											{
												"patchline" : 												{
													"source" : [ "obj-69", 0 ],
													"destination" : [ "obj-75", 0 ],
													"hidden" : 0,
													"midpoints" : [  ]
												}

											}
, 											{
												"patchline" : 												{
													"source" : [ "obj-61", 0 ],
													"destination" : [ "obj-75", 0 ],
													"hidden" : 0,
													"midpoints" : [  ]
												}

											}
 ]
									}
,
									"saved_object_attributes" : 									{
										"fontname" : "Arial",
										"default_fontface" : 0,
										"globalpatchername" : "",
										"default_fontname" : "Arial",
										"fontface" : 0,
										"default_fontsize" : 12.0,
										"fontsize" : 12.0
									}

								}

							}
, 							{
								"box" : 								{
									"maxclass" : "inlet",
									"id" : "obj-50",
									"numinlets" : 0,
									"patching_rect" : [ 585.0, 90.0, 25.0, 25.0 ],
									"numoutlets" : 1,
									"outlettype" : [ "" ],
									"comment" : ""
								}

							}
, 							{
								"box" : 								{
									"maxclass" : "newobj",
									"text" : "t b 1 b",
									"id" : "obj-11",
									"numinlets" : 1,
									"patching_rect" : [ 120.0, 165.0, 46.0, 20.0 ],
									"fontname" : "Arial",
									"numoutlets" : 3,
									"outlettype" : [ "bang", "int", "bang" ],
									"fontsize" : 12.0
								}

							}
, 							{
								"box" : 								{
									"maxclass" : "newobj",
									"text" : "gate 1 1",
									"id" : "obj-12",
									"numinlets" : 2,
									"patching_rect" : [ 336.0, 192.0, 60.0, 20.0 ],
									"fontname" : "Arial",
									"numoutlets" : 1,
									"outlettype" : [ "" ],
									"fontsize" : 12.0
								}

							}
, 							{
								"box" : 								{
									"maxclass" : "newobj",
									"text" : "t b l clear",
									"id" : "obj-15",
									"numinlets" : 1,
									"patching_rect" : [ 120.0, 135.0, 98.0, 20.0 ],
									"fontname" : "Arial",
									"numoutlets" : 3,
									"outlettype" : [ "bang", "", "clear" ],
									"fontsize" : 12.0
								}

							}
, 							{
								"box" : 								{
									"maxclass" : "newobj",
									"text" : "p adjust_size",
									"id" : "obj-6",
									"numinlets" : 1,
									"patching_rect" : [ 465.0, 165.0, 91.0, 20.0 ],
									"fontname" : "Arial",
									"numoutlets" : 1,
									"outlettype" : [ "" ],
									"fontsize" : 12.0,
									"patcher" : 									{
										"fileversion" : 1,
										"rect" : [ 20.0, 74.0, 362.0, 374.0 ],
										"bglocked" : 0,
										"defrect" : [ 20.0, 74.0, 362.0, 374.0 ],
										"openrect" : [ 0.0, 0.0, 0.0, 0.0 ],
										"openinpresentation" : 0,
										"default_fontsize" : 13.0,
										"default_fontface" : 0,
										"default_fontname" : "Arial",
										"gridonopen" : 0,
										"gridsize" : [ 15.0, 15.0 ],
										"gridsnaponopen" : 0,
										"toolbarvisible" : 1,
										"boxanimatetime" : 200,
										"imprint" : 0,
										"enablehscroll" : 1,
										"enablevscroll" : 1,
										"devicewidth" : 0.0,
										"boxes" : [ 											{
												"box" : 												{
													"maxclass" : "outlet",
													"id" : "obj-1",
													"numinlets" : 1,
													"patching_rect" : [ 117.0, 267.0, 15.0, 15.0 ],
													"numoutlets" : 0,
													"comment" : ""
												}

											}
, 											{
												"box" : 												{
													"maxclass" : "inlet",
													"id" : "obj-2",
													"numinlets" : 0,
													"patching_rect" : [ 117.0, 45.0, 15.0, 15.0 ],
													"numoutlets" : 1,
													"outlettype" : [ "" ],
													"comment" : ""
												}

											}
, 											{
												"box" : 												{
													"maxclass" : "newobj",
													"text" : "t b l",
													"id" : "obj-3",
													"numinlets" : 1,
													"patching_rect" : [ 117.0, 116.0, 35.0, 17.0 ],
													"fontname" : "Arial",
													"numoutlets" : 2,
													"outlettype" : [ "bang", "" ],
													"fontsize" : 9.0
												}

											}
, 											{
												"box" : 												{
													"maxclass" : "newobj",
													"text" : "t b i",
													"id" : "obj-4",
													"numinlets" : 1,
													"patching_rect" : [ 184.0, 180.0, 27.0, 17.0 ],
													"fontname" : "Arial",
													"numoutlets" : 2,
													"outlettype" : [ "bang", "int" ],
													"fontsize" : 9.0
												}

											}
, 											{
												"box" : 												{
													"maxclass" : "newobj",
													"text" : "t b i",
													"id" : "obj-5",
													"numinlets" : 1,
													"patching_rect" : [ 142.0, 180.0, 27.0, 17.0 ],
													"fontname" : "Arial",
													"numoutlets" : 2,
													"outlettype" : [ "bang", "int" ],
													"fontsize" : 9.0
												}

											}
, 											{
												"box" : 												{
													"maxclass" : "newobj",
													"text" : "onebang",
													"id" : "obj-6",
													"numinlets" : 2,
													"patching_rect" : [ 117.0, 218.0, 45.0, 17.0 ],
													"fontname" : "Arial",
													"numoutlets" : 2,
													"outlettype" : [ "bang", "bang" ],
													"fontsize" : 9.0
												}

											}
, 											{
												"box" : 												{
													"maxclass" : "newobj",
													"text" : "pack dim 320 240",
													"id" : "obj-7",
													"numinlets" : 3,
													"patching_rect" : [ 117.0, 241.0, 94.0, 17.0 ],
													"fontname" : "Arial",
													"numoutlets" : 1,
													"outlettype" : [ "" ],
													"fontsize" : 9.0
												}

											}
, 											{
												"box" : 												{
													"maxclass" : "newobj",
													"text" : "change",
													"id" : "obj-8",
													"numinlets" : 1,
													"patching_rect" : [ 184.0, 160.0, 40.0, 17.0 ],
													"fontname" : "Arial",
													"numoutlets" : 3,
													"outlettype" : [ "", "int", "int" ],
													"fontsize" : 9.0
												}

											}
, 											{
												"box" : 												{
													"maxclass" : "newobj",
													"text" : "change",
													"id" : "obj-9",
													"numinlets" : 1,
													"patching_rect" : [ 142.0, 160.0, 40.0, 17.0 ],
													"fontname" : "Arial",
													"numoutlets" : 3,
													"outlettype" : [ "", "int", "int" ],
													"fontsize" : 9.0
												}

											}
, 											{
												"box" : 												{
													"maxclass" : "newobj",
													"text" : "unpack",
													"id" : "obj-10",
													"numinlets" : 1,
													"patching_rect" : [ 142.0, 140.0, 52.0, 17.0 ],
													"fontname" : "Arial",
													"numoutlets" : 2,
													"outlettype" : [ "int", "int" ],
													"fontsize" : 9.0
												}

											}
, 											{
												"box" : 												{
													"maxclass" : "newobj",
													"text" : "route dim",
													"id" : "obj-11",
													"numinlets" : 1,
													"patching_rect" : [ 117.0, 94.0, 53.0, 17.0 ],
													"fontname" : "Arial",
													"numoutlets" : 2,
													"outlettype" : [ "", "" ],
													"fontsize" : 9.0
												}

											}
, 											{
												"box" : 												{
													"maxclass" : "newobj",
													"text" : "jit.matrixinfo",
													"id" : "obj-12",
													"numinlets" : 1,
													"patching_rect" : [ 117.0, 71.0, 72.0, 17.0 ],
													"fontname" : "Arial",
													"numoutlets" : 1,
													"outlettype" : [ "" ],
													"fontsize" : 9.0
												}

											}
 ],
										"lines" : [ 											{
												"patchline" : 												{
													"source" : [ "obj-4", 1 ],
													"destination" : [ "obj-7", 2 ],
													"hidden" : 0,
													"midpoints" : [  ]
												}

											}
, 											{
												"patchline" : 												{
													"source" : [ "obj-8", 0 ],
													"destination" : [ "obj-4", 0 ],
													"hidden" : 0,
													"midpoints" : [  ]
												}

											}
, 											{
												"patchline" : 												{
													"source" : [ "obj-10", 1 ],
													"destination" : [ "obj-8", 0 ],
													"hidden" : 0,
													"midpoints" : [  ]
												}

											}
, 											{
												"patchline" : 												{
													"source" : [ "obj-5", 1 ],
													"destination" : [ "obj-7", 1 ],
													"hidden" : 0,
													"midpoints" : [  ]
												}

											}
, 											{
												"patchline" : 												{
													"source" : [ "obj-5", 0 ],
													"destination" : [ "obj-6", 1 ],
													"hidden" : 0,
													"midpoints" : [  ]
												}

											}
, 											{
												"patchline" : 												{
													"source" : [ "obj-4", 0 ],
													"destination" : [ "obj-6", 1 ],
													"hidden" : 0,
													"midpoints" : [  ]
												}

											}
, 											{
												"patchline" : 												{
													"source" : [ "obj-9", 0 ],
													"destination" : [ "obj-5", 0 ],
													"hidden" : 0,
													"midpoints" : [  ]
												}

											}
, 											{
												"patchline" : 												{
													"source" : [ "obj-10", 0 ],
													"destination" : [ "obj-9", 0 ],
													"hidden" : 0,
													"midpoints" : [  ]
												}

											}
, 											{
												"patchline" : 												{
													"source" : [ "obj-3", 1 ],
													"destination" : [ "obj-10", 0 ],
													"hidden" : 0,
													"midpoints" : [  ]
												}

											}
, 											{
												"patchline" : 												{
													"source" : [ "obj-7", 0 ],
													"destination" : [ "obj-1", 0 ],
													"hidden" : 0,
													"midpoints" : [  ]
												}

											}
, 											{
												"patchline" : 												{
													"source" : [ "obj-6", 0 ],
													"destination" : [ "obj-7", 0 ],
													"hidden" : 0,
													"midpoints" : [  ]
												}

											}
, 											{
												"patchline" : 												{
													"source" : [ "obj-3", 0 ],
													"destination" : [ "obj-6", 0 ],
													"hidden" : 0,
													"midpoints" : [  ]
												}

											}
, 											{
												"patchline" : 												{
													"source" : [ "obj-11", 0 ],
													"destination" : [ "obj-3", 0 ],
													"hidden" : 0,
													"midpoints" : [  ]
												}

											}
, 											{
												"patchline" : 												{
													"source" : [ "obj-12", 0 ],
													"destination" : [ "obj-11", 0 ],
													"hidden" : 0,
													"midpoints" : [  ]
												}

											}
, 											{
												"patchline" : 												{
													"source" : [ "obj-2", 0 ],
													"destination" : [ "obj-12", 0 ],
													"hidden" : 0,
													"midpoints" : [  ]
												}

											}
 ]
									}
,
									"saved_object_attributes" : 									{
										"fontname" : "Arial",
										"default_fontface" : 0,
										"globalpatchername" : "",
										"default_fontname" : "Arial",
										"fontface" : 0,
										"default_fontsize" : 13.0,
										"fontsize" : 13.0
									}

								}

							}
, 							{
								"box" : 								{
									"maxclass" : "newobj",
									"text" : "t 0 l l",
									"id" : "obj-10",
									"numinlets" : 1,
									"patching_rect" : [ 420.0, 120.0, 64.0, 20.0 ],
									"fontname" : "Arial",
									"numoutlets" : 3,
									"outlettype" : [ "int", "", "" ],
									"fontsize" : 12.0
								}

							}
, 							{
								"box" : 								{
									"maxclass" : "newobj",
									"text" : "jit.lcd 4 char 320 240",
									"id" : "obj-4",
									"numinlets" : 1,
									"patching_rect" : [ 120.0, 570.0, 121.0, 20.0 ],
									"fontname" : "Arial",
									"numoutlets" : 2,
									"outlettype" : [ "jit_matrix", "" ],
									"fontsize" : 12.0
								}

							}
, 							{
								"box" : 								{
									"maxclass" : "outlet",
									"id" : "obj-3",
									"numinlets" : 1,
									"patching_rect" : [ 120.0, 600.0, 25.0, 25.0 ],
									"numoutlets" : 0,
									"comment" : ""
								}

							}
, 							{
								"box" : 								{
									"maxclass" : "inlet",
									"id" : "obj-2",
									"numinlets" : 0,
									"patching_rect" : [ 420.0, 90.0, 25.0, 25.0 ],
									"numoutlets" : 1,
									"outlettype" : [ "" ],
									"comment" : ""
								}

							}
, 							{
								"box" : 								{
									"maxclass" : "inlet",
									"id" : "obj-1",
									"numinlets" : 0,
									"patching_rect" : [ 120.0, 90.0, 25.0, 25.0 ],
									"numoutlets" : 1,
									"outlettype" : [ "jit_matrix" ],
									"comment" : ""
								}

							}
 ],
						"lines" : [ 							{
								"patchline" : 								{
									"source" : [ "obj-15", 1 ],
									"destination" : [ "obj-27", 0 ],
									"hidden" : 0,
									"midpoints" : [ 169.0, 279.5, 264.5, 279.5 ]
								}

							}
, 							{
								"patchline" : 								{
									"source" : [ "obj-27", 0 ],
									"destination" : [ "obj-4", 0 ],
									"hidden" : 0,
									"midpoints" : [ 264.5, 516.0, 129.5, 516.0 ]
								}

							}
, 							{
								"patchline" : 								{
									"source" : [ "obj-50", 0 ],
									"destination" : [ "obj-76", 1 ],
									"hidden" : 0,
									"midpoints" : [ 594.5, 351.5, 218.5, 351.5 ]
								}

							}
, 							{
								"patchline" : 								{
									"source" : [ "obj-11", 2 ],
									"destination" : [ "obj-76", 0 ],
									"hidden" : 0,
									"midpoints" : [  ]
								}

							}
, 							{
								"patchline" : 								{
									"source" : [ "obj-76", 0 ],
									"destination" : [ "obj-4", 0 ],
									"hidden" : 0,
									"midpoints" : [ 159.5, 516.0, 129.5, 516.0 ]
								}

							}
, 							{
								"patchline" : 								{
									"source" : [ "obj-11", 0 ],
									"destination" : [ "obj-4", 0 ],
									"hidden" : 0,
									"midpoints" : [ 129.5, 495.0, 129.5, 495.0 ]
								}

							}
, 							{
								"patchline" : 								{
									"source" : [ "obj-11", 1 ],
									"destination" : [ "obj-12", 0 ],
									"hidden" : 0,
									"midpoints" : [ 143.0, 188.0, 345.5, 188.0 ]
								}

							}
, 							{
								"patchline" : 								{
									"source" : [ "obj-15", 0 ],
									"destination" : [ "obj-11", 0 ],
									"hidden" : 0,
									"midpoints" : [  ]
								}

							}
, 							{
								"patchline" : 								{
									"source" : [ "obj-4", 0 ],
									"destination" : [ "obj-3", 0 ],
									"hidden" : 0,
									"midpoints" : [  ]
								}

							}
, 							{
								"patchline" : 								{
									"source" : [ "obj-10", 2 ],
									"destination" : [ "obj-6", 0 ],
									"hidden" : 0,
									"midpoints" : [  ]
								}

							}
, 							{
								"patchline" : 								{
									"source" : [ "obj-2", 0 ],
									"destination" : [ "obj-10", 0 ],
									"hidden" : 0,
									"midpoints" : [  ]
								}

							}
, 							{
								"patchline" : 								{
									"source" : [ "obj-6", 0 ],
									"destination" : [ "obj-4", 0 ],
									"hidden" : 0,
									"midpoints" : [ 474.5, 516.0, 129.5, 516.0 ]
								}

							}
, 							{
								"patchline" : 								{
									"source" : [ "obj-10", 1 ],
									"destination" : [ "obj-4", 0 ],
									"hidden" : 0,
									"midpoints" : [ 452.0, 516.5, 129.5, 516.5 ]
								}

							}
, 							{
								"patchline" : 								{
									"source" : [ "obj-15", 2 ],
									"destination" : [ "obj-12", 1 ],
									"hidden" : 0,
									"midpoints" : [ 208.5, 165.0, 386.5, 165.0 ]
								}

							}
, 							{
								"patchline" : 								{
									"source" : [ "obj-1", 0 ],
									"destination" : [ "obj-15", 0 ],
									"hidden" : 0,
									"midpoints" : [  ]
								}

							}
, 							{
								"patchline" : 								{
									"source" : [ "obj-10", 0 ],
									"destination" : [ "obj-12", 0 ],
									"hidden" : 0,
									"midpoints" : [ 429.5, 184.0, 345.5, 184.0 ]
								}

							}
, 							{
								"patchline" : 								{
									"source" : [ "obj-12", 0 ],
									"destination" : [ "obj-4", 0 ],
									"hidden" : 0,
									"midpoints" : [ 345.5, 516.5, 129.5, 516.5 ]
								}

							}
, 							{
								"patchline" : 								{
									"source" : [ "obj-7", 0 ],
									"destination" : [ "obj-4", 0 ],
									"hidden" : 0,
									"midpoints" : [  ]
								}

							}
 ]
					}
,
					"saved_object_attributes" : 					{
						"fontname" : "Arial",
						"default_fontface" : 0,
						"globalpatchername" : "",
						"default_fontname" : "Arial",
						"fontface" : 0,
						"default_fontsize" : 12.0,
						"fontsize" : 12.0
					}

				}

			}
, 			{
				"box" : 				{
					"maxclass" : "newobj",
					"text" : "jit.unpack 14",
					"id" : "obj-3",
					"numinlets" : 1,
					"patching_rect" : [ 75.0, 45.0, 208.0, 20.0 ],
					"fontname" : "Arial",
					"numoutlets" : 15,
					"outlettype" : [ "jit_matrix", "jit_matrix", "jit_matrix", "jit_matrix", "jit_matrix", "jit_matrix", "jit_matrix", "jit_matrix", "jit_matrix", "jit_matrix", "jit_matrix", "jit_matrix", "jit_matrix", "jit_matrix", "" ],
					"fontsize" : 12.0
				}

			}
, 			{
				"box" : 				{
					"maxclass" : "newobj",
					"text" : "loadbang",
					"id" : "obj-19",
					"numinlets" : 1,
					"patching_rect" : [ 345.0, 135.0, 60.0, 20.0 ],
					"fontname" : "Arial",
					"numoutlets" : 1,
					"outlettype" : [ "bang" ],
					"fontsize" : 12.0
				}

			}
, 			{
				"box" : 				{
					"maxclass" : "jit.fpsgui",
					"id" : "obj-5",
					"numinlets" : 1,
					"patching_rect" : [ 435.0, 255.0, 80.0, 36.0 ],
					"fontname" : "Arial",
					"mode" : 3,
					"numoutlets" : 2,
					"outlettype" : [ "", "" ],
					"fontsize" : 12.0
				}

			}
, 			{
				"box" : 				{
					"maxclass" : "number",
					"id" : "obj-10",
					"numinlets" : 1,
					"patching_rect" : [ 210.0, 195.0, 50.0, 20.0 ],
					"fontname" : "Arial",
					"numoutlets" : 2,
					"outlettype" : [ "int", "bang" ],
					"fontsize" : 12.0
				}

			}
, 			{
				"box" : 				{
					"maxclass" : "message",
					"text" : "thresh $1",
					"id" : "obj-7",
					"numinlets" : 2,
					"patching_rect" : [ 210.0, 225.0, 61.0, 18.0 ],
					"fontname" : "Arial",
					"numoutlets" : 1,
					"outlettype" : [ "" ],
					"fontsize" : 12.0
				}

			}
, 			{
				"box" : 				{
					"maxclass" : "comment",
					"text" : "supports: any type/planecount.",
					"id" : "obj-110",
					"numinlets" : 1,
					"patching_rect" : [ 470.0, 361.0, 166.0, 20.0 ],
					"fontname" : "Arial",
					"numoutlets" : 0,
					"fontsize" : 11.595187
				}

			}
, 			{
				"box" : 				{
					"maxclass" : "message",
					"text" : "1",
					"id" : "obj-111",
					"numinlets" : 2,
					"patching_rect" : [ 531.0, 419.0, 61.0, 18.0 ],
					"fontname" : "Arial",
					"numoutlets" : 1,
					"outlettype" : [ "" ],
					"fontsize" : 11.595187
				}

			}
, 			{
				"box" : 				{
					"maxclass" : "message",
					"text" : "float32",
					"id" : "obj-112",
					"numinlets" : 2,
					"patching_rect" : [ 462.0, 419.0, 60.0, 18.0 ],
					"fontname" : "Arial",
					"numoutlets" : 1,
					"outlettype" : [ "" ],
					"fontsize" : 11.595187
				}

			}
, 			{
				"box" : 				{
					"maxclass" : "message",
					"text" : "14",
					"id" : "obj-113",
					"numinlets" : 2,
					"patching_rect" : [ 390.0, 419.0, 65.0, 18.0 ],
					"fontname" : "Arial",
					"numoutlets" : 1,
					"outlettype" : [ "" ],
					"fontsize" : 11.595187
				}

			}
, 			{
				"box" : 				{
					"maxclass" : "newobj",
					"text" : "route planecount type dim",
					"id" : "obj-114",
					"numinlets" : 1,
					"patching_rect" : [ 390.0, 388.0, 227.0, 20.0 ],
					"fontname" : "Arial",
					"numoutlets" : 4,
					"outlettype" : [ "", "", "", "" ],
					"fontsize" : 11.595187
				}

			}
, 			{
				"box" : 				{
					"maxclass" : "newobj",
					"text" : "jit.matrixinfo",
					"id" : "obj-115",
					"numinlets" : 1,
					"patching_rect" : [ 390.0, 360.0, 70.0, 20.0 ],
					"fontname" : "Arial",
					"numoutlets" : 1,
					"outlettype" : [ "" ],
					"fontsize" : 11.595187
				}

			}
, 			{
				"box" : 				{
					"maxclass" : "jit.fpsgui",
					"id" : "obj-15",
					"numinlets" : 1,
					"patching_rect" : [ 300.0, 405.0, 80.0, 36.0 ],
					"fontname" : "Arial",
					"mode" : 3,
					"numoutlets" : 2,
					"outlettype" : [ "", "" ],
					"fontsize" : 12.0
				}

			}
, 			{
				"box" : 				{
					"maxclass" : "button",
					"id" : "obj-14",
					"numinlets" : 1,
					"patching_rect" : [ 255.0, 165.0, 20.0, 20.0 ],
					"numoutlets" : 1,
					"outlettype" : [ "bang" ]
				}

			}
, 			{
				"box" : 				{
					"maxclass" : "newobj",
					"text" : "qmetro",
					"id" : "obj-11",
					"numinlets" : 2,
					"patching_rect" : [ 300.0, 135.0, 48.0, 20.0 ],
					"fontname" : "Arial",
					"numoutlets" : 1,
					"outlettype" : [ "bang" ],
					"fontsize" : 12.0
				}

			}
, 			{
				"box" : 				{
					"maxclass" : "toggle",
					"id" : "obj-8",
					"numinlets" : 1,
					"patching_rect" : [ 300.0, 105.0, 20.0, 20.0 ],
					"numoutlets" : 1,
					"outlettype" : [ "int" ]
				}

			}
, 			{
				"box" : 				{
					"maxclass" : "message",
					"text" : "close",
					"id" : "obj-6",
					"numinlets" : 2,
					"patching_rect" : [ 390.0, 165.0, 39.0, 18.0 ],
					"fontname" : "Arial",
					"numoutlets" : 1,
					"outlettype" : [ "" ],
					"fontsize" : 12.0
				}

			}
, 			{
				"box" : 				{
					"maxclass" : "message",
					"text" : "open",
					"id" : "obj-4",
					"numinlets" : 2,
					"patching_rect" : [ 345.0, 165.0, 37.0, 18.0 ],
					"fontname" : "Arial",
					"numoutlets" : 1,
					"outlettype" : [ "" ],
					"fontsize" : 12.0
				}

			}
, 			{
				"box" : 				{
					"maxclass" : "newobj",
					"text" : "jit.qt.grab 640 480",
					"id" : "obj-2",
					"numinlets" : 1,
					"patching_rect" : [ 300.0, 195.0, 107.0, 20.0 ],
					"fontname" : "Arial",
					"numoutlets" : 2,
					"outlettype" : [ "jit_matrix", "" ],
					"fontsize" : 12.0
				}

			}
, 			{
				"box" : 				{
					"maxclass" : "newobj",
					"text" : "av.jit.artsimple",
					"id" : "obj-1",
					"numinlets" : 1,
					"patching_rect" : [ 300.0, 330.0, 86.0, 20.0 ],
					"fontname" : "Arial",
					"numoutlets" : 2,
					"outlettype" : [ "jit_matrix", "" ],
					"fontsize" : 12.0
				}

			}
 ],
		"lines" : [ 			{
				"patchline" : 				{
					"source" : [ "obj-30", 0 ],
					"destination" : [ "obj-1", 0 ],
					"hidden" : 0,
					"midpoints" : [  ]
				}

			}
, 			{
				"patchline" : 				{
					"source" : [ "obj-1", 0 ],
					"destination" : [ "obj-46", 0 ],
					"hidden" : 0,
					"midpoints" : [ 309.5, 361.0, 285.0, 361.0, 285.0, 75.0, 294.0, 75.0, 294.0, 0.0, 84.5, 0.0 ]
				}

			}
, 			{
				"patchline" : 				{
					"source" : [ "obj-29", 0 ],
					"destination" : [ "obj-1", 0 ],
					"hidden" : 0,
					"midpoints" : [  ]
				}

			}
, 			{
				"patchline" : 				{
					"source" : [ "obj-1", 0 ],
					"destination" : [ "obj-51", 0 ],
					"hidden" : 0,
					"midpoints" : [  ]
				}

			}
, 			{
				"patchline" : 				{
					"source" : [ "obj-35", 0 ],
					"destination" : [ "obj-1", 0 ],
					"hidden" : 0,
					"midpoints" : [  ]
				}

			}
, 			{
				"patchline" : 				{
					"source" : [ "obj-1", 0 ],
					"destination" : [ "obj-115", 0 ],
					"hidden" : 0,
					"midpoints" : [  ]
				}

			}
, 			{
				"patchline" : 				{
					"source" : [ "obj-1", 0 ],
					"destination" : [ "obj-15", 0 ],
					"hidden" : 0,
					"midpoints" : [  ]
				}

			}
, 			{
				"patchline" : 				{
					"source" : [ "obj-7", 0 ],
					"destination" : [ "obj-1", 0 ],
					"hidden" : 0,
					"midpoints" : [  ]
				}

			}
, 			{
				"patchline" : 				{
					"source" : [ "obj-28", 0 ],
					"destination" : [ "obj-1", 0 ],
					"hidden" : 0,
					"midpoints" : [  ]
				}

			}
, 			{
				"patchline" : 				{
					"source" : [ "obj-39", 0 ],
					"destination" : [ "obj-1", 0 ],
					"hidden" : 0,
					"midpoints" : [  ]
				}

			}
, 			{
				"patchline" : 				{
					"source" : [ "obj-44", 0 ],
					"destination" : [ "obj-54", 0 ],
					"hidden" : 0,
					"midpoints" : [ 84.5, 99.5, 39.5, 99.5 ]
				}

			}
, 			{
				"patchline" : 				{
					"source" : [ "obj-3", 13 ],
					"destination" : [ "obj-44", 13 ],
					"hidden" : 0,
					"midpoints" : [  ]
				}

			}
, 			{
				"patchline" : 				{
					"source" : [ "obj-3", 12 ],
					"destination" : [ "obj-44", 12 ],
					"hidden" : 0,
					"midpoints" : [  ]
				}

			}
, 			{
				"patchline" : 				{
					"source" : [ "obj-3", 11 ],
					"destination" : [ "obj-44", 11 ],
					"hidden" : 0,
					"midpoints" : [  ]
				}

			}
, 			{
				"patchline" : 				{
					"source" : [ "obj-3", 10 ],
					"destination" : [ "obj-44", 10 ],
					"hidden" : 0,
					"midpoints" : [  ]
				}

			}
, 			{
				"patchline" : 				{
					"source" : [ "obj-3", 9 ],
					"destination" : [ "obj-44", 9 ],
					"hidden" : 0,
					"midpoints" : [  ]
				}

			}
, 			{
				"patchline" : 				{
					"source" : [ "obj-3", 8 ],
					"destination" : [ "obj-44", 8 ],
					"hidden" : 0,
					"midpoints" : [  ]
				}

			}
, 			{
				"patchline" : 				{
					"source" : [ "obj-3", 7 ],
					"destination" : [ "obj-44", 7 ],
					"hidden" : 0,
					"midpoints" : [  ]
				}

			}
, 			{
				"patchline" : 				{
					"source" : [ "obj-3", 6 ],
					"destination" : [ "obj-44", 6 ],
					"hidden" : 0,
					"midpoints" : [  ]
				}

			}
, 			{
				"patchline" : 				{
					"source" : [ "obj-3", 5 ],
					"destination" : [ "obj-44", 5 ],
					"hidden" : 0,
					"midpoints" : [  ]
				}

			}
, 			{
				"patchline" : 				{
					"source" : [ "obj-3", 4 ],
					"destination" : [ "obj-44", 4 ],
					"hidden" : 0,
					"midpoints" : [  ]
				}

			}
, 			{
				"patchline" : 				{
					"source" : [ "obj-3", 3 ],
					"destination" : [ "obj-44", 3 ],
					"hidden" : 0,
					"midpoints" : [  ]
				}

			}
, 			{
				"patchline" : 				{
					"source" : [ "obj-3", 2 ],
					"destination" : [ "obj-44", 2 ],
					"hidden" : 0,
					"midpoints" : [  ]
				}

			}
, 			{
				"patchline" : 				{
					"source" : [ "obj-3", 1 ],
					"destination" : [ "obj-44", 1 ],
					"hidden" : 0,
					"midpoints" : [  ]
				}

			}
, 			{
				"patchline" : 				{
					"source" : [ "obj-3", 0 ],
					"destination" : [ "obj-44", 0 ],
					"hidden" : 0,
					"midpoints" : [  ]
				}

			}
, 			{
				"patchline" : 				{
					"source" : [ "obj-31", 0 ],
					"destination" : [ "obj-2", 0 ],
					"hidden" : 0,
					"midpoints" : [  ]
				}

			}
, 			{
				"patchline" : 				{
					"source" : [ "obj-2", 0 ],
					"destination" : [ "obj-5", 0 ],
					"hidden" : 0,
					"midpoints" : [  ]
				}

			}
, 			{
				"patchline" : 				{
					"source" : [ "obj-14", 0 ],
					"destination" : [ "obj-2", 0 ],
					"hidden" : 0,
					"midpoints" : [ 264.5, 189.5, 309.5, 189.5 ]
				}

			}
, 			{
				"patchline" : 				{
					"source" : [ "obj-11", 0 ],
					"destination" : [ "obj-2", 0 ],
					"hidden" : 0,
					"midpoints" : [  ]
				}

			}
, 			{
				"patchline" : 				{
					"source" : [ "obj-6", 0 ],
					"destination" : [ "obj-2", 0 ],
					"hidden" : 0,
					"midpoints" : [ 399.5, 188.5, 309.5, 188.5 ]
				}

			}
, 			{
				"patchline" : 				{
					"source" : [ "obj-4", 0 ],
					"destination" : [ "obj-2", 0 ],
					"hidden" : 0,
					"midpoints" : [ 354.5, 188.5, 309.5, 188.5 ]
				}

			}
, 			{
				"patchline" : 				{
					"source" : [ "obj-34", 0 ],
					"destination" : [ "obj-2", 0 ],
					"hidden" : 0,
					"midpoints" : [  ]
				}

			}
, 			{
				"patchline" : 				{
					"source" : [ "obj-37", 0 ],
					"destination" : [ "obj-2", 0 ],
					"hidden" : 0,
					"midpoints" : [  ]
				}

			}
, 			{
				"patchline" : 				{
					"source" : [ "obj-17", 0 ],
					"destination" : [ "obj-53", 0 ],
					"hidden" : 0,
					"midpoints" : [  ]
				}

			}
, 			{
				"patchline" : 				{
					"source" : [ "obj-25", 1 ],
					"destination" : [ "obj-17", 0 ],
					"hidden" : 0,
					"midpoints" : [  ]
				}

			}
, 			{
				"patchline" : 				{
					"source" : [ "obj-33", 0 ],
					"destination" : [ "obj-26", 0 ],
					"hidden" : 0,
					"midpoints" : [  ]
				}

			}
, 			{
				"patchline" : 				{
					"source" : [ "obj-22", 0 ],
					"destination" : [ "obj-26", 0 ],
					"hidden" : 0,
					"midpoints" : [  ]
				}

			}
, 			{
				"patchline" : 				{
					"source" : [ "obj-25", 1 ],
					"destination" : [ "obj-26", 0 ],
					"hidden" : 0,
					"midpoints" : [ 699.0, 422.0, 774.5, 422.0 ]
				}

			}
, 			{
				"patchline" : 				{
					"source" : [ "obj-24", 0 ],
					"destination" : [ "obj-25", 0 ],
					"hidden" : 0,
					"midpoints" : [  ]
				}

			}
, 			{
				"patchline" : 				{
					"source" : [ "obj-51", 0 ],
					"destination" : [ "obj-24", 0 ],
					"hidden" : 0,
					"midpoints" : [ 399.5, 347.0, 684.5, 347.0 ]
				}

			}
, 			{
				"patchline" : 				{
					"source" : [ "obj-23", 0 ],
					"destination" : [ "obj-20", 0 ],
					"hidden" : 0,
					"midpoints" : [ 9.5, 99.5, -91.5, 99.5 ]
				}

			}
, 			{
				"patchline" : 				{
					"source" : [ "obj-10", 0 ],
					"destination" : [ "obj-7", 0 ],
					"hidden" : 0,
					"midpoints" : [  ]
				}

			}
, 			{
				"patchline" : 				{
					"source" : [ "obj-8", 0 ],
					"destination" : [ "obj-11", 0 ],
					"hidden" : 0,
					"midpoints" : [  ]
				}

			}
, 			{
				"patchline" : 				{
					"source" : [ "obj-114", 2 ],
					"destination" : [ "obj-111", 1 ],
					"hidden" : 0,
					"midpoints" : [ 538.166687, 416.0, 582.5, 416.0 ]
				}

			}
, 			{
				"patchline" : 				{
					"source" : [ "obj-114", 1 ],
					"destination" : [ "obj-112", 1 ],
					"hidden" : 0,
					"midpoints" : [ 468.833344, 413.0, 512.5, 413.0 ]
				}

			}
, 			{
				"patchline" : 				{
					"source" : [ "obj-114", 0 ],
					"destination" : [ "obj-113", 1 ],
					"hidden" : 0,
					"midpoints" : [ 399.5, 413.0, 445.5, 413.0 ]
				}

			}
, 			{
				"patchline" : 				{
					"source" : [ "obj-115", 0 ],
					"destination" : [ "obj-114", 0 ],
					"hidden" : 0,
					"midpoints" : [  ]
				}

			}
, 			{
				"patchline" : 				{
					"source" : [ "obj-19", 0 ],
					"destination" : [ "obj-4", 0 ],
					"hidden" : 0,
					"midpoints" : [  ]
				}

			}
, 			{
				"patchline" : 				{
					"source" : [ "obj-46", 0 ],
					"destination" : [ "obj-3", 0 ],
					"hidden" : 0,
					"midpoints" : [  ]
				}

			}
, 			{
				"patchline" : 				{
					"source" : [ "obj-12", 0 ],
					"destination" : [ "obj-9", 0 ],
					"hidden" : 0,
					"midpoints" : [  ]
				}

			}
, 			{
				"patchline" : 				{
					"source" : [ "obj-49", 0 ],
					"destination" : [ "obj-43", 0 ],
					"hidden" : 0,
					"midpoints" : [  ]
				}

			}
, 			{
				"patchline" : 				{
					"source" : [ "obj-21", 1 ],
					"destination" : [ "obj-27", 0 ],
					"hidden" : 0,
					"midpoints" : [  ]
				}

			}
, 			{
				"patchline" : 				{
					"source" : [ "obj-18", 0 ],
					"destination" : [ "obj-21", 0 ],
					"hidden" : 0,
					"midpoints" : [  ]
				}

			}
, 			{
				"patchline" : 				{
					"source" : [ "obj-16", 0 ],
					"destination" : [ "obj-21", 0 ],
					"hidden" : 0,
					"midpoints" : [  ]
				}

			}
, 			{
				"patchline" : 				{
					"source" : [ "obj-9", 0 ],
					"destination" : [ "obj-21", 0 ],
					"hidden" : 0,
					"midpoints" : [  ]
				}

			}
, 			{
				"patchline" : 				{
					"source" : [ "obj-50", 0 ],
					"destination" : [ "obj-32", 0 ],
					"hidden" : 0,
					"midpoints" : [  ]
				}

			}
, 			{
				"patchline" : 				{
					"source" : [ "obj-50", 1 ],
					"destination" : [ "obj-55", 0 ],
					"hidden" : 0,
					"midpoints" : [  ]
				}

			}
, 			{
				"patchline" : 				{
					"source" : [ "obj-55", 0 ],
					"destination" : [ "obj-32", 0 ],
					"hidden" : 0,
					"midpoints" : [  ]
				}

			}
, 			{
				"patchline" : 				{
					"source" : [ "obj-21", 0 ],
					"destination" : [ "obj-56", 0 ],
					"hidden" : 0,
					"midpoints" : [  ]
				}

			}
, 			{
				"patchline" : 				{
					"source" : [ "obj-56", 0 ],
					"destination" : [ "obj-50", 0 ],
					"hidden" : 0,
					"midpoints" : [  ]
				}

			}
, 			{
				"patchline" : 				{
					"source" : [ "obj-57", 0 ],
					"destination" : [ "obj-58", 0 ],
					"hidden" : 0,
					"midpoints" : [  ]
				}

			}
, 			{
				"patchline" : 				{
					"source" : [ "obj-38", 0 ],
					"destination" : [ "obj-59", 0 ],
					"hidden" : 0,
					"midpoints" : [  ]
				}

			}
, 			{
				"patchline" : 				{
					"source" : [ "obj-32", 0 ],
					"destination" : [ "obj-38", 0 ],
					"hidden" : 0,
					"midpoints" : [  ]
				}

			}
, 			{
				"patchline" : 				{
					"source" : [ "obj-58", 0 ],
					"destination" : [ "obj-38", 0 ],
					"hidden" : 0,
					"midpoints" : [  ]
				}

			}
, 			{
				"patchline" : 				{
					"source" : [ "obj-43", 0 ],
					"destination" : [ "obj-38", 0 ],
					"hidden" : 0,
					"midpoints" : [  ]
				}

			}
, 			{
				"patchline" : 				{
					"source" : [ "obj-60", 0 ],
					"destination" : [ "obj-13", 0 ],
					"hidden" : 0,
					"midpoints" : [ 894.5, 247.0, 926.0, 247.0, 926.0, 232.0, 939.5, 232.0 ]
				}

			}
, 			{
				"patchline" : 				{
					"source" : [ "obj-13", 0 ],
					"destination" : [ "obj-77", 0 ],
					"hidden" : 0,
					"midpoints" : [  ]
				}

			}
, 			{
				"patchline" : 				{
					"source" : [ "obj-76", 0 ],
					"destination" : [ "obj-78", 0 ],
					"hidden" : 0,
					"midpoints" : [ 939.5, 344.0, 919.0, 344.0, 919.0, 278.0, 863.5, 278.0 ]
				}

			}
, 			{
				"patchline" : 				{
					"source" : [ "obj-78", 0 ],
					"destination" : [ "obj-79", 0 ],
					"hidden" : 0,
					"midpoints" : [  ]
				}

			}
, 			{
				"patchline" : 				{
					"source" : [ "obj-77", 0 ],
					"destination" : [ "obj-76", 0 ],
					"hidden" : 0,
					"midpoints" : [  ]
				}

			}
, 			{
				"patchline" : 				{
					"source" : [ "obj-79", 0 ],
					"destination" : [ "obj-38", 0 ],
					"hidden" : 0,
					"midpoints" : [  ]
				}

			}
, 			{
				"patchline" : 				{
					"source" : [ "obj-59", 0 ],
					"destination" : [ "obj-35", 0 ],
					"hidden" : 0,
					"midpoints" : [  ]
				}

			}
, 			{
				"patchline" : 				{
					"source" : [ "obj-35", 1 ],
					"destination" : [ "obj-51", 1 ],
					"hidden" : 0,
					"midpoints" : [ 323.0, 264.0, 405.0, 264.0, 405.0, 297.0, 447.5, 297.0 ]
				}

			}
, 			{
				"patchline" : 				{
					"source" : [ "obj-35", 2 ],
					"destination" : [ "obj-60", 1 ],
					"hidden" : 0,
					"midpoints" : [  ]
				}

			}
, 			{
				"patchline" : 				{
					"source" : [ "obj-62", 0 ],
					"destination" : [ "obj-60", 0 ],
					"hidden" : 0,
					"midpoints" : [  ]
				}

			}
, 			{
				"patchline" : 				{
					"source" : [ "obj-36", 0 ],
					"destination" : [ "obj-6", 0 ],
					"hidden" : 0,
					"midpoints" : [  ]
				}

			}
, 			{
				"patchline" : 				{
					"source" : [ "obj-41", 0 ],
					"destination" : [ "obj-36", 0 ],
					"hidden" : 0,
					"midpoints" : [  ]
				}

			}
, 			{
				"patchline" : 				{
					"source" : [ "obj-2", 0 ],
					"destination" : [ "obj-35", 0 ],
					"hidden" : 0,
					"midpoints" : [  ]
				}

			}
, 			{
				"patchline" : 				{
					"source" : [ "obj-51", 0 ],
					"destination" : [ "obj-61", 0 ],
					"hidden" : 0,
					"midpoints" : [  ]
				}

			}
 ]
	}

}
